<?xml version="1.0" encoding="utf-8" standalone="no"?>
<!DOCTYPE svg PUBLIC "-//W3C//DTD SVG 1.1//EN"
  "http://www.w3.org/Graphics/SVG/1.1/DTD/svg11.dtd">
<!-- Created with matplotlib (https://matplotlib.org/) -->
<svg height="345.6pt" version="1.1" viewBox="0 0 460.8 345.6" width="460.8pt" xmlns="http://www.w3.org/2000/svg" xmlns:xlink="http://www.w3.org/1999/xlink">
 <metadata>
  <rdf:RDF xmlns:cc="http://creativecommons.org/ns#" xmlns:dc="http://purl.org/dc/elements/1.1/" xmlns:rdf="http://www.w3.org/1999/02/22-rdf-syntax-ns#">
   <cc:Work>
    <dc:type rdf:resource="http://purl.org/dc/dcmitype/StillImage"/>
    <dc:date>2021-11-09T11:36:33.625646</dc:date>
    <dc:format>image/svg+xml</dc:format>
    <dc:creator>
     <cc:Agent>
      <dc:title>Matplotlib v3.3.2, https://matplotlib.org/</dc:title>
     </cc:Agent>
    </dc:creator>
   </cc:Work>
  </rdf:RDF>
 </metadata>
 <defs>
  <style type="text/css">*{stroke-linecap:butt;stroke-linejoin:round;}</style>
 </defs>
 <g id="figure_1">
  <g id="patch_1">
   <path d="M 0 345.6 
L 460.8 345.6 
L 460.8 0 
L 0 0 
z
" style="fill:none;"/>
  </g>
  <g id="axes_1">
   <g id="PatchCollection_1">
    <path clip-path="url(#p48aaf318f8)" d="M 120.268523 250.445216 
L 162.618277 222.625033 
L 203.217299 252.943074 
L 201.230453 202.311891 
L 248.146284 183.171125 
L 295.80315 200.384121 
L 295.88123 251.054212 
L 335.211035 219.106902 
L 378.659312 245.178178 
L 379.513561 194.515228 
L 332.181476 176.428273 
L 323.259936 126.549718 
L 367.102481 101.147053 
L 327.068175 70.087135 
L 284.213708 97.123385 
L 290.17039 46.80458 
L 244.902529 24.03871 
L 200.600003 48.630383 
L 208.602283 98.664648 
L 164.681657 73.397222 
L 125.946332 106.062781 
L 170.787645 129.657713 
L 163.906119 179.858398 
L 117.350415 199.859162 
L 120.268523 250.445216 
L 117.11233 211.536945 
L 78.787961 218.95704 
L 80.355979 179.952472 
L 118.95089 185.804644 
L 154.193772 190.331851 
L 137.960785 221.939547 
L 138.83615 192.870436 
z
" style="fill:#800000;fill-opacity:0.65;"/>
    <path clip-path="url(#p48aaf318f8)" d="M 369.499114 230.30378 
L 330.333506 246.410837 
L 303.829621 213.381666 
L 261.495114 212.299227 
L 250.588053 171.379572 
L 215.998239 146.947486 
L 229.677319 106.869251 
L 258.377286 75.729341 
L 236.601021 39.408873 
L 256.830855 76.61285 
L 226.846925 106.518469 
L 211.494766 145.986093 
L 245.026691 171.850976 
L 241.162791 214.022677 
L 199.614482 222.215364 
L 179.048166 259.234396 
L 137.730229 249.949451 
L 150.348199 290.374306 
L 192.690779 289.675742 
L 220.560009 321.56129 
L 259.013723 303.821675 
L 299.904714 314.835711 
L 322.009387 278.714172 
L 363.865431 272.275719 
L 369.499114 230.30378 
L 382.012039 258.436555 
L 351.26437 260.05124 
L 339.077618 288.326838 
L 317.0371 266.827026 
L 336.66284 284.361806 
L 310.823137 279.367015 
L 304.492276 303.93513 
z
" style="fill:#000080;fill-opacity:0.65;"/>
    <path clip-path="url(#p48aaf318f8)" d="M 362.376129 207.197926 
L 334.196875 178.1098 
L 343.841055 138.7756 
L 311.537087 163.20188 
L 273.67051 148.838321 
L 299.794127 117.890847 
L 287.482059 79.308436 
L 247.687242 86.829208 
L 220.152258 57.130485 
L 209.050828 96.078499 
L 170.164322 107.393494 
L 176.658404 147.368691 
L 213.964166 163.131608 
L 186.706852 193.085377 
L 146.843745 185.935397 
L 134.89139 224.630755 
L 161.301977 255.333692 
L 200.789317 246.337057 
L 214.173547 208.113348 
L 227.913036 246.210801 
L 267.482419 254.839443 
L 298.854914 229.227805 
L 293.853119 189.038608 
L 323.095446 217.057813 
L 362.376129 207.197926 
L 331.41841 210.922668 
L 321.266807 181.440487 
L 315.887135 212.153891 
L 344.782446 223.872041 
L 374.059861 215.019679 
L 370.600181 184.629518 
L 351.688464 189.752554 
z
" style="fill:#deff19;fill-opacity:0.65;"/>
    <path clip-path="url(#p48aaf318f8)" d="M 271.739755 71.51845 
L 276.874938 91.44643 
L 259.942314 103.141758 
L 239.380396 102.3039 
L 233.072628 82.715471 
L 233.364389 103.292384 
L 214.151622 110.665583 
L 194.366974 105.003234 
L 192.855629 84.479824 
L 189.152301 104.722844 
L 206.874634 115.182931 
L 191.742706 129.129947 
L 173.43133 119.739101 
L 165.059491 138.538218 
L 179.815872 152.881987 
L 161.822128 162.86796 
L 146.241204 149.424401 
L 140.578855 169.209049 
L 120.055446 170.720394 
L 127.428644 189.933161 
L 148.005558 189.6414 
L 147.167699 210.203318 
L 127.57927 216.511086 
L 139.274598 233.44371 
L 159.202578 228.308527 
L 169.188551 246.302271 
L 155.744992 261.883195 
L 174.544109 270.255034 
L 188.887878 255.498653 
L 179.497032 273.81003 
L 193.444048 288.941957 
L 213.687068 292.645285 
L 224.147155 274.922952 
L 225.6585 295.446361 
L 245.443148 301.10871 
L 264.655915 293.735511 
L 264.364154 273.158598 
L 270.671921 292.747027 
L 291.233839 293.584886 
L 308.166464 281.889557 
L 303.031281 261.961578 
L 318.612205 275.405137 
L 336.605949 265.419164 
L 321.849568 251.075395 
L 330.221407 232.276278 
L 348.532783 241.667124 
L 363.664711 227.720108 
L 345.942378 217.260021 
L 349.645706 197.017001 
L 329.717726 202.152185 
L 318.022398 185.21956 
L 337.610827 178.911792 
L 338.448685 158.349874 
L 317.871772 158.641635 
L 310.498573 139.428868 
L 331.021982 137.917523 
L 336.684331 118.132875 
L 326.224245 135.855208 
L 305.981225 132.15188 
L 292.034209 117.019953 
L 301.425055 98.708576 
L 287.081286 113.464957 
L 268.282169 105.093118 
L 281.725728 89.512194 
L 271.739755 71.51845 
L 261.488825 86.302164 
L 245.391744 78.269497 
L 259.83421 88.995863 
L 272.514691 76.234783 
L 264.970759 92.522849 
L 280.050813 102.259581 
L 291.084717 106.375907 
z
" style="fill:#0094ff;fill-opacity:0.65;"/>
    <path clip-path="url(#p48aaf318f8)" d="M 311.91134 235.857229 
L 311.876176 212.517655 
L 288.743828 215.621103 
L 303.497575 197.536196 
L 283.629896 185.288248 
L 297.822874 166.759991 
L 314.324261 183.265782 
L 313.574341 159.938233 
L 336.797988 162.26183 
L 331.161191 139.613134 
L 354.354384 137.003023 
L 370.650753 120.294783 
L 351.944974 106.336606 
L 333.675436 91.812112 
L 321.679026 111.832678 
L 316.738487 89.021979 
L 294.77536 96.918685 
L 291.872952 73.760254 
L 269.297147 79.68224 
L 281.717199 59.921693 
L 260.49525 50.207488 
L 237.748673 55.435314 
L 245.921742 77.297104 
L 225.007244 66.937534 
L 217.487352 89.032514 
L 197.57174 76.862662 
L 188.12595 98.205436 
L 180.420309 76.174548 
L 159.593768 86.709829 
L 138.454354 96.602356 
L 151.040329 116.257639 
L 173.22839 123.498279 
L 163.133411 144.541765 
L 186.347757 146.956522 
L 180.901837 169.651871 
L 200.396827 156.819012 
L 210.55517 177.831984 
L 188.623215 185.814858 
L 199.420314 206.506875 
L 177.391484 198.795355 
L 172.643162 221.64684 
L 189.005003 205.002709 
L 203.353466 223.410819 
L 205.47526 200.167865 
L 228.237487 205.327127 
L 208.473626 217.741906 
L 223.379106 235.701961 
L 246.288658 240.161711 
L 238.85557 262.286044 
L 236.044106 239.116396 
L 259.382266 239.375585 
L 242.53311 223.224955 
L 260.758799 208.645476 
L 284.09395 208.189814 
L 281.47765 231.382311 
L 299.248294 216.25151 
L 311.91134 235.857229 
L 297.9306 219.889476 
L 288.23586 238.769155 
L 291.989044 217.88031 
L 271.186572 222.085947 
L 258.104319 209.288478 
L 262.159782 227.134311 
L 273.708374 213.912801 
z
" style="fill:#7dff7a;fill-opacity:0.65;"/>
    <path clip-path="url(#p48aaf318f8)" d="M 190.44189 220.756988 
L 186.345838 246.074316 
L 211.990216 246.406979 
L 214.185007 271.959428 
L 239.13787 266.034949 
L 262.531421 276.546207 
L 269.492289 251.862384 
L 294.741697 256.358179 
L 295.479741 230.722265 
L 320.79707 234.818318 
L 321.129732 209.17394 
L 346.682182 206.979148 
L 340.757703 182.026286 
L 315.121789 181.288241 
L 319.617584 156.038833 
L 294.933761 149.077966 
L 305.445019 125.684414 
L 304.706974 151.320328 
L 279.457566 146.824534 
L 272.496698 171.508356 
L 249.103147 160.997098 
L 224.150285 166.921577 
L 221.955493 141.369128 
L 196.311115 141.036465 
L 200.407168 115.719137 
L 189.89591 139.112688 
L 214.579733 146.073556 
L 210.083938 171.322964 
L 235.719852 172.061009 
L 241.644331 197.013871 
L 216.091881 199.208663 
L 215.759219 224.85304 
L 190.44189 220.756988 
L 172.220213 233.076635 
L 192.623522 241.292975 
L 208.203346 256.81948 
L 186.618944 261.05231 
L 199.442036 275.782419 
L 183.81928 264.06332 
L 168.949064 276.555654 
z
" style="fill:#02e8f4;fill-opacity:0.65;"/>
   </g>
  </g>
 </g>
 <defs>
  <clipPath id="p48aaf318f8">
   <rect height="324" width="439.2" x="10.8" y="10.8"/>
  </clipPath>
 </defs>
</svg>
