<?xml version="1.0" encoding="utf-8" standalone="no"?>
<!DOCTYPE svg PUBLIC "-//W3C//DTD SVG 1.1//EN"
  "http://www.w3.org/Graphics/SVG/1.1/DTD/svg11.dtd">
<!-- Created with matplotlib (https://matplotlib.org/) -->
<svg height="345.6pt" version="1.1" viewBox="0 0 460.8 345.6" width="460.8pt" xmlns="http://www.w3.org/2000/svg" xmlns:xlink="http://www.w3.org/1999/xlink">
 <metadata>
  <rdf:RDF xmlns:cc="http://creativecommons.org/ns#" xmlns:dc="http://purl.org/dc/elements/1.1/" xmlns:rdf="http://www.w3.org/1999/02/22-rdf-syntax-ns#">
   <cc:Work>
    <dc:type rdf:resource="http://purl.org/dc/dcmitype/StillImage"/>
    <dc:date>2021-11-09T11:36:33.515637</dc:date>
    <dc:format>image/svg+xml</dc:format>
    <dc:creator>
     <cc:Agent>
      <dc:title>Matplotlib v3.3.2, https://matplotlib.org/</dc:title>
     </cc:Agent>
    </dc:creator>
   </cc:Work>
  </rdf:RDF>
 </metadata>
 <defs>
  <style type="text/css">*{stroke-linecap:butt;stroke-linejoin:round;}</style>
 </defs>
 <g id="figure_1">
  <g id="patch_1">
   <path d="M 0 345.6 
L 460.8 345.6 
L 460.8 0 
L 0 0 
z
" style="fill:none;"/>
  </g>
  <g id="axes_1">
   <g id="PatchCollection_1">
    <path clip-path="url(#pfa0a917a37)" d="M 231.708585 291.813528 
L 256.394404 287.037379 
L 251.859414 262.306121 
L 271.90185 277.488414 
L 287.279032 257.595111 
L 312.033701 253.189701 
L 307.870105 228.393215 
L 327.682604 243.874368 
L 343.356389 224.213907 
L 366.669711 214.796356 
L 357.480145 191.39223 
L 333.92396 182.599767 
L 342.486097 158.95889 
L 365.655566 149.192778 
L 356.116052 125.929096 
L 332.430659 117.490883 
L 340.637302 93.724262 
L 315.773951 89.980597 
L 319.274773 65.081892 
L 299.882184 81.085915 
L 283.689653 61.850449 
L 258.772956 58.480069 
L 261.899989 33.531664 
L 242.749587 49.82471 
L 226.270411 30.834238 
L 210.596626 50.494699 
L 190.784126 35.013546 
L 194.947722 59.810032 
L 170.193054 64.215442 
L 154.815871 84.108745 
L 134.773436 68.926452 
L 139.308425 93.65771 
L 114.622607 98.43386 
L 106.415965 122.20048 
L 130.101357 130.638693 
L 139.640871 153.902375 
L 116.471402 163.668487 
L 107.909265 187.309364 
L 131.46545 196.101827 
L 140.655016 219.505953 
L 117.341694 228.923505 
L 133.82087 247.913976 
L 152.971273 231.620931 
L 149.84424 256.569335 
L 174.760936 259.939715 
L 190.953468 279.175181 
L 210.346056 263.171159 
L 206.845235 288.069863 
L 231.708585 291.813528 
L 247.289172 302.916484 
L 244.036954 284.063013 
L 246.653863 303.015112 
L 231.455131 291.394922 
L 212.572755 294.472454 
L 223.820736 278.996723 
L 238.43114 288.974277 
z
" style="fill:#ffa700;fill-opacity:0.65;"/>
    <path clip-path="url(#pfa0a917a37)" d="M 142.965276 81.335539 
L 120.702373 82.225558 
L 104.379708 97.391295 
L 123.210161 109.301082 
L 129.754591 130.598955 
L 107.488792 129.784596 
L 90.054616 143.658257 
L 107.919592 156.972596 
L 112.816866 178.708412 
L 134.365066 173.042366 
L 154.412212 182.765582 
L 139.893022 199.66594 
L 139.869856 221.946614 
L 160.921897 214.650003 
L 181.653631 222.812368 
L 168.468783 240.773124 
L 170.148818 262.99038 
L 179.154008 242.610598 
L 199.255115 232.999434 
L 216.660404 246.909319 
L 220.821069 268.798079 
L 228.242082 247.789568 
L 247.549701 236.669998 
L 265.967335 249.208726 
L 271.789002 270.715403 
L 276.807527 249.007262 
L 266.488616 229.260135 
L 288.215821 224.324803 
L 307.923276 234.719283 
L 311.267749 212.691041 
L 299.469559 193.790467 
L 320.755939 187.208749 
L 341.200286 196.06638 
L 349.326333 175.320385 
L 368.99835 164.858993 
L 353.861221 148.509795 
L 331.728107 145.949675 
L 341.4162 125.885533 
L 361.830329 116.958477 
L 347.98722 99.500032 
L 326.114558 95.255549 
L 330.200815 73.352776 
L 319.04745 54.06466 
L 296.827286 55.705785 
L 281.025933 71.413943 
L 286.77448 49.887606 
L 277.12813 29.803361 
L 254.84753 29.741177 
L 237.891679 44.195521 
L 223.315141 27.344601 
L 201.281075 24.03871 
L 188.710112 42.434358 
L 191.139262 64.582229 
L 177.893455 46.666382 
L 156.176559 41.685881 
L 142.236215 59.066784 
L 142.965276 81.335539 
L 141.012859 63.162289 
L 153.68989 49.995216 
L 141.809954 63.885718 
L 144.828795 81.912518 
L 130.841149 70.15723 
L 112.84857 73.336567 
L 109.878451 66.198708 
z
" style="fill:#0088ff;fill-opacity:0.65;"/>
    <path clip-path="url(#pfa0a917a37)" d="M 300.885829 85.60546 
L 305.667023 118.453696 
L 274.048 108.349052 
L 271.74549 141.463472 
L 242.992972 124.875552 
L 210.530262 117.94454 
L 230.992376 91.807051 
L 200.74155 78.141258 
L 226.286871 56.944489 
L 252.894895 76.790885 
L 223.391808 92.003848 
L 245.179119 117.0474 
L 213.118587 125.64907 
L 185.26302 143.702706 
L 181.249923 110.751811 
L 150.196183 122.4792 
L 153.271074 89.427552 
L 136.683154 118.180071 
L 169.797575 120.482581 
L 159.692931 152.101603 
L 192.541167 147.32041 
L 185.610155 179.783119 
L 159.472666 159.321005 
L 145.806872 189.571832 
L 124.610104 164.026511 
L 142.66374 191.882078 
L 109.712845 195.895174 
L 121.440234 226.948914 
L 88.388585 223.874023 
L 96.990255 255.934555 
L 122.033807 234.147244 
L 137.24677 263.650332 
L 157.093166 237.042307 
L 131.547846 258.239076 
L 161.798672 271.90487 
L 141.336558 298.042358 
L 173.799267 304.97337 
L 202.551786 321.56129 
L 204.854296 288.44687 
L 236.473319 298.551514 
L 231.692125 265.703278 
L 228.617234 298.754926 
L 259.670974 287.027537 
L 263.684071 319.978432 
L 291.539638 301.924796 
L 323.600169 293.323126 
L 301.812859 268.279574 
L 331.315946 253.066611 
L 304.707922 233.220215 
L 325.90469 258.765536 
L 339.570484 228.514709 
L 365.707973 248.976823 
L 372.638985 216.514114 
L 339.790749 221.295307 
L 349.895393 189.676285 
L 316.780972 187.373775 
L 333.368892 158.621256 
L 313.522496 185.229281 
L 298.309533 155.726193 
L 273.265981 177.513504 
L 264.664311 145.452973 
L 297.71596 148.527863 
L 285.988571 117.474123 
L 318.939465 113.461027 
L 300.885829 85.60546 
L 324.856645 106.281001 
L 294.095486 113.752889 
L 311.940475 139.899292 
L 280.292451 139.206038 
L 258.04976 156.563209 
L 282.401051 142.314583 
L 300.601159 163.791023 
z
" style="fill:#000080;fill-opacity:0.65;"/>
    <path clip-path="url(#pfa0a917a37)" d="M 189.13389 79.112865 
L 210.766931 134.792476 
L 157.625924 107.511696 
L 120.312787 154.15864 
L 179.184387 144.042207 
L 179.585128 203.775338 
L 139.632424 159.368255 
L 88.161015 189.681646 
L 146.778479 201.179491 
L 177.09187 252.6509 
L 188.589715 194.033436 
L 144.182632 233.98614 
L 203.915763 233.585399 
L 250.562707 270.898537 
L 240.446274 212.026936 
L 213.165494 265.167943 
L 268.845106 243.534902 
L 210.227641 232.037056 
L 261.69905 201.723666 
L 301.651754 246.130749 
L 301.251013 186.397618 
L 242.379413 196.514051 
L 279.692551 149.867107 
L 332.833558 177.147887 
L 311.200516 121.468276 
L 255.520905 143.101317 
L 282.801685 89.96031 
L 292.918118 148.83191 
L 246.271174 111.518773 
L 186.538043 111.919513 
L 230.945126 71.96681 
L 219.44728 130.584274 
L 189.13389 79.112865 
L 243.893693 96.683409 
L 203.547438 55.701221 
L 257.421292 75.825035 
L 200.362093 83.008894 
L 178.637127 136.174274 
L 173.828878 78.943054 
L 211.215902 120.42325 
z
" style="fill:#ffb600;fill-opacity:0.65;"/>
    <path clip-path="url(#pfa0a917a37)" d="M 173.273806 216.354242 
L 215.25466 251.88932 
L 226.124342 197.972868 
L 259.45059 241.72781 
L 205.04596 249.806794 
L 252.622624 222.209787 
L 205.494994 193.852773 
L 194.820495 247.808207 
L 247.230416 231.124862 
L 301.1018 220.033975 
L 265.394714 178.199326 
L 238.165973 225.987708 
L 293.161486 226.77978 
L 241.76005 246.350835 
L 249.418617 191.885432 
L 285.27686 233.59059 
L 304.505033 182.059909 
L 250.264067 191.173163 
L 268.452672 139.266435 
L 311.102421 173.995856 
L 260.104715 194.596045 
L 315.105038 194.282635 
L 288.293236 146.259088 
L 269.91691 198.099656 
L 233.376228 156.991113 
L 285.440254 139.257783 
L 244.787094 102.211132 
L 243.793014 157.203364 
L 196.104973 129.799267 
L 143.977114 147.344072 
L 153.760967 93.220048 
L 187.959887 136.296348 
L 209.189655 85.557499 
L 181.005945 132.788975 
L 153.234362 85.314002 
L 135.903661 137.513433 
L 189.987072 127.507514 
L 233.326212 161.372729 
L 242.077898 107.072252 
L 277.090691 149.489679 
L 223.043843 159.691249 
L 211.287083 213.421244 
L 169.897556 177.19914 
L 170.008932 232.200243 
L 218.130642 205.565026 
L 163.574626 212.548932 
L 183.780337 161.393648 
L 225.038513 197.765295 
L 173.273806 216.354242 
L 128.295911 246.85435 
L 125.541366 192.58023 
L 97.381969 239.05943 
L 151.725938 239.034053 
L 205.875265 243.629488 
L 181.724367 194.946824 
L 229.023157 221.706722 
L 181.614803 248.272029 
L 158.057795 297.070903 
L 129.019439 251.321186 
L 132.024698 305.425078 
L 176.408651 274.33927 
L 227.501505 291.120813 
L 213.373111 239.23162 
L 228.928696 283.957385 
z
" style="fill:#800000;fill-opacity:0.65;"/>
    <path clip-path="url(#pfa0a917a37)" d="M 293.682538 152.747996 
L 288.927511 188.829838 
L 277.901771 154.146374 
L 278.709327 190.531226 
L 262.519305 157.936859 
L 231.205291 176.482534 
L 251.672803 146.389503 
L 223.556116 169.49711 
L 239.190993 136.632841 
L 227.069353 170.94866 
L 223.462595 134.73401 
L 216.720306 170.497834 
L 207.628658 135.25792 
L 173.153697 146.919248 
L 199.407645 121.715285 
L 167.116341 138.501627 
L 189.216042 109.586012 
L 216.552529 133.61154 
L 181.598282 123.476936 
L 212.281333 143.048854 
L 176.189825 138.36776 
L 150.216989 163.861315 
L 184.560513 151.818396 
L 155.001085 173.049265 
L 190.780276 166.389003 
L 222.498309 184.234897 
L 186.203224 181.556028 
L 220.273342 194.351989 
L 183.994612 197.243923 
L 163.862072 227.562077 
L 194.9685 208.670288 
L 170.44461 235.56059 
L 204.069915 221.637643 
L 218.061722 255.234353 
L 219.669975 218.876092 
L 228.370274 254.21466 
L 235.508748 218.527803 
L 270.573232 228.274162 
L 242.971997 204.553256 
L 276.138183 219.537038 
L 252.480631 191.88148 
L 273.124485 221.853815 
L 267.171054 185.950247 
L 282.998627 218.722148 
L 282.594608 182.330578 
L 318.917169 184.606792 
L 287.003186 167.113729 
L 322.552816 174.90689 
L 293.682538 152.747996 
L 282.04142 186.498357 
L 300.188688 155.752964 
L 277.958176 183.688728 
L 305.320186 160.755718 
L 289.744045 192.880263 
L 298.590391 158.292047 
L 294.619647 193.772122 
L 291.424241 158.213833 
L 321.671531 177.165283 
L 288.302772 164.493188 
L 323.196487 172.008819 
L 287.506781 171.460273 
L 252.368301 176.696432 
L 287.307631 170.26422 
L 290.442988 205.646873 
z
" style="fill:#ffd000;fill-opacity:0.65;"/>
   </g>
  </g>
 </g>
 <defs>
  <clipPath id="pfa0a917a37">
   <rect height="324" width="439.2" x="10.8" y="10.8"/>
  </clipPath>
 </defs>
</svg>
