<?xml version="1.0" encoding="utf-8" standalone="no"?>
<!DOCTYPE svg PUBLIC "-//W3C//DTD SVG 1.1//EN"
  "http://www.w3.org/Graphics/SVG/1.1/DTD/svg11.dtd">
<!-- Created with matplotlib (https://matplotlib.org/) -->
<svg height="345.6pt" version="1.1" viewBox="0 0 460.8 345.6" width="460.8pt" xmlns="http://www.w3.org/2000/svg" xmlns:xlink="http://www.w3.org/1999/xlink">
 <metadata>
  <rdf:RDF xmlns:cc="http://creativecommons.org/ns#" xmlns:dc="http://purl.org/dc/elements/1.1/" xmlns:rdf="http://www.w3.org/1999/02/22-rdf-syntax-ns#">
   <cc:Work>
    <dc:type rdf:resource="http://purl.org/dc/dcmitype/StillImage"/>
    <dc:date>2021-11-09T11:36:33.553231</dc:date>
    <dc:format>image/svg+xml</dc:format>
    <dc:creator>
     <cc:Agent>
      <dc:title>Matplotlib v3.3.2, https://matplotlib.org/</dc:title>
     </cc:Agent>
    </dc:creator>
   </cc:Work>
  </rdf:RDF>
 </metadata>
 <defs>
  <style type="text/css">*{stroke-linecap:butt;stroke-linejoin:round;}</style>
 </defs>
 <g id="figure_1">
  <g id="patch_1">
   <path d="M 0 345.6 
L 460.8 345.6 
L 460.8 0 
L 0 0 
z
" style="fill:none;"/>
  </g>
  <g id="axes_1">
   <g id="PatchCollection_1">
    <path clip-path="url(#p7adb56d514)" d="M 95.171205 164.910899 
L 125.995466 167.846705 
L 134.318226 197.670951 
L 159.96359 215.022298 
L 152.972526 245.186498 
L 183.138231 238.201931 
L 200.484054 263.851033 
L 230.306507 272.180216 
L 233.235673 303.005108 
L 236.171478 272.180848 
L 265.995724 263.858088 
L 283.347071 238.212723 
L 313.511272 245.203788 
L 306.526705 215.038082 
L 332.175806 197.69226 
L 340.50499 167.869807 
L 371.329882 164.940641 
L 368.400716 134.115749 
L 338.578263 125.786565 
L 321.23244 100.137464 
L 291.066735 107.122031 
L 298.057799 76.95783 
L 272.412435 59.606483 
L 264.089675 29.782237 
L 233.265414 26.846432 
L 202.440522 29.775598 
L 194.111338 59.59805 
L 168.462237 76.943873 
L 175.446804 107.109579 
L 145.282604 100.118514 
L 127.931257 125.763879 
L 98.107011 134.086639 
L 95.171205 164.910899 
L 91.795874 146.161189 
L 80.628691 161.596166 
L 99.377673 164.975535 
L 83.940292 176.139394 
L 78.819847 158.223975 
L 94.186652 168.761646 
L 105.437402 155.317426 
z
" style="fill:#0000a4;fill-opacity:0.65;"/>
    <path clip-path="url(#p7adb56d514)" d="M 199.275746 45.388766 
L 233.117621 68.427226 
L 201.94542 94.966574 
L 162.276937 84.844585 
L 163.012476 125.777484 
L 127.811626 146.680672 
L 157.284268 175.095572 
L 119.890511 158.429736 
L 113.71354 198.900568 
L 154.184371 205.077539 
L 137.518535 242.471296 
L 165.933435 212.998654 
L 186.836624 248.199504 
L 227.769522 247.463965 
L 217.647533 287.132448 
L 240.685993 253.290572 
L 267.225341 284.462774 
L 273.402312 243.991943 
L 310.79607 260.657778 
L 281.323427 232.242879 
L 316.524278 211.33969 
L 315.788739 170.406792 
L 355.457221 180.528781 
L 386.629423 153.989432 
L 352.787547 130.950973 
L 326.248199 99.778771 
L 303.209739 133.620646 
L 313.331728 93.952164 
L 272.39883 94.687703 
L 251.495641 59.486853 
L 223.080742 88.959495 
L 239.746577 51.565737 
L 199.275746 45.388766 
L 164.730043 45.210191 
L 191.424825 67.137938 
L 173.103533 37.850266 
L 205.79358 49.021583 
L 229.580415 24.03871 
L 226.594888 58.405032 
L 259.101927 56.654588 
z
" style="fill:#800000;fill-opacity:0.65;"/>
    <path clip-path="url(#p7adb56d514)" d="M 223.851824 274.988673 
L 296.231525 264.906258 
L 225.173804 247.839435 
L 236.880485 319.974238 
L 252.345896 248.550872 
L 184.131433 274.766575 
L 238.046564 225.434691 
L 288.577786 278.227414 
L 260.835512 210.61941 
L 307.739055 266.659874 
L 284.560441 197.354551 
L 229.588341 245.505816 
L 298.355192 220.775344 
L 368.760891 240.35885 
L 310.382302 196.39959 
L 292.386188 267.227664 
L 335.022221 207.875791 
L 261.946355 208.50344 
L 329.737996 181.212976 
L 358.545258 248.374108 
L 356.275307 175.33081 
L 418.075702 214.33321 
L 374.803975 155.443196 
L 314.956259 197.380375 
L 355.337837 136.472213 
L 282.46597 141.964662 
L 348.28984 110.220461 
L 352.143026 183.197369 
L 321.886308 116.676642 
L 394.108146 127.833807 
L 330.959563 91.054293 
L 292.770007 153.360263 
L 305.547618 81.40744 
L 236.168188 104.363283 
L 292.359047 57.640018 
L 313.749712 127.51788 
L 268.301202 70.291059 
L 341.077169 63.647657 
L 270.90741 43.234888 
L 248.922656 112.928121 
L 243.916651 40.021221 
L 226.621635 111.023746 
L 216.771801 38.612028 
L 287.367664 57.498534 
L 214.752854 65.718348 
L 160.259472 114.410724 
L 193.188341 49.171428 
L 240.643618 104.745458 
L 176.160916 70.358583 
L 176.553797 143.436088 
L 149.481262 75.557122 
L 81.01096 101.097164 
L 154.078834 102.346879 
L 112.98149 162.774392 
L 129.152249 91.507411 
L 188.640789 133.952548 
L 117.755267 116.18407 
L 147.225087 183.057128 
L 95.35441 131.579861 
L 42.724298 182.280426 
L 110.242828 154.321096 
L 95.621124 225.921947 
L 135.398581 164.617542 
L 197.581541 203.007067 
L 125.670139 189.998364 
L 157.625643 255.719912 
L 151.899112 182.866066 
L 86.912402 216.290661 
L 159.619134 208.928107 
L 223.197235 244.960053 
L 177.185191 188.185341 
L 142.591335 252.557239 
L 198.317534 205.280745 
L 159.513877 267.206122 
L 218.264571 223.745426 
L 263.034773 281.504452 
L 200.252885 244.102438 
L 203.384421 317.113873 
L 227.152186 248.008377 
L 296.77443 270.216916 
L 223.851824 274.988673 
L 151.559513 268.029745 
L 222.659749 253.218892 
L 254.259249 318.610608 
L 204.675483 265.544092 
L 158.451262 321.56129 
L 185.96684 254.348955 
L 229.112527 312.77031 
L 205.250314 244.175851 
L 261.670248 289.685791 
L 219.71833 230.572339 
L 287.450055 256.394366 
L 215.252542 249.922682 
L 156.153421 291.795593 
L 202.327486 235.992344 
L 274.046196 239.484548 
z
" style="fill:#e1ff16;fill-opacity:0.65;"/>
    <path clip-path="url(#p7adb56d514)" d="M 258.911952 258.112599 
L 304.792062 270.709457 
L 276.213197 232.671137 
L 284.208105 279.572595 
L 306.585098 237.58527 
L 259.043866 239.455192 
L 295.50064 208.884471 
L 338.623754 228.985774 
L 316.81761 186.699164 
L 270.623831 175.306177 
L 314.13082 156.049821 
L 284.265742 193.086862 
L 285.22248 145.518491 
L 237.773202 142.021162 
L 277.441615 115.751745 
L 318.025916 140.582769 
L 301.122 96.108924 
L 314.352273 141.810403 
L 275.922285 113.760423 
L 234.248498 136.716049 
L 281.256056 144.061445 
L 251.192534 180.937589 
L 252.404681 133.375041 
L 273.100545 176.215985 
L 230.516355 154.996841 
L 204.798149 195.02482 
L 200.644831 147.628457 
L 226.034847 187.86541 
L 181.331439 171.578279 
L 133.780852 173.192897 
L 170.401253 142.818375 
L 151.748533 186.587558 
L 139.717678 140.555788 
L 164.891272 180.928495 
L 120.275964 164.401559 
L 86.42671 197.83647 
L 133.658294 192.105607 
L 141.904928 238.96346 
L 164.056143 196.856584 
L 125.086348 224.151645 
L 172.610698 226.410275 
L 175.526475 273.898837 
L 202.279889 234.555221 
L 160.48344 257.286745 
L 207.450878 264.884447 
L 248.167927 289.497192 
L 231.025448 245.114755 
L 225.948447 292.421091 
L 258.911952 258.112599 
L 254.739346 304.337859 
L 280.208816 265.537196 
L 317.027905 293.795646 
L 271.235598 286.229282 
L 317.162823 279.53038 
L 273.50043 263.789327 
L 276.797993 310.085238 
L 295.712586 267.701001 
L 317.144727 308.594172 
L 315.480541 262.45505 
L 359.92 274.973936 
L 314.432903 282.88039 
L 269.813342 293.096987 
L 307.897575 267.702593 
L 345.127062 293.020182 
z
" style="fill:#0000f6;fill-opacity:0.65;"/>
    <path clip-path="url(#p7adb56d514)" d="M 247.112392 83.246063 
L 261.608266 123.738742 
L 224.260895 102.40892 
L 245.578657 139.763176 
L 205.090661 125.254229 
L 205.429548 168.262048 
L 177.19987 135.814049 
L 185.013877 178.107414 
L 151.570836 151.063922 
L 124.527345 184.506962 
L 166.820709 176.692956 
L 134.37271 204.922634 
L 177.38053 204.583746 
L 162.871582 245.071743 
L 200.225838 223.753981 
L 178.896017 261.101352 
L 219.388695 246.605477 
L 252.831736 273.648969 
L 245.017729 231.355604 
L 273.247407 263.803604 
L 272.90852 220.795784 
L 313.396516 235.304731 
L 292.078754 197.950476 
L 329.426125 219.280297 
L 314.930251 178.787618 
L 274.437572 193.283493 
L 295.767393 155.936122 
L 258.413138 177.253884 
L 272.922085 136.765887 
L 229.914265 137.104775 
L 262.362265 108.875097 
L 220.0689 116.689103 
L 247.112392 83.246063 
L 231.317651 120.472695 
L 252.109911 85.788723 
L 212.508172 93.973969 
L 252.861438 91.345299 
L 223.410776 118.945823 
L 251.020807 89.504074 
L 276.94243 120.415324 
z
" style="fill:#000080;fill-opacity:0.65;"/>
    <path clip-path="url(#p7adb56d514)" d="M 266.884787 104.633037 
L 268.741563 69.624045 
L 233.783387 66.97772 
L 208.670183 91.44002 
L 232.559543 117.098852 
L 203.18662 97.959663 
L 183.389468 126.893206 
L 217.562469 119.064854 
L 226.159985 153.052497 
L 249.25822 126.67924 
L 223.41292 102.991741 
L 188.551357 106.699645 
L 191.471621 141.636004 
L 180.210968 108.435479 
L 146.764787 118.944053 
L 178.467116 133.912 
L 164.218383 165.944027 
L 161.329842 131.005031 
L 196.194757 127.328782 
L 222.018539 151.039737 
L 198.896368 177.392011 
L 227.69201 157.394809 
L 248.333931 185.731856 
L 213.944903 178.914827 
L 206.353577 213.141263 
L 182.487525 187.460751 
L 207.622929 163.021263 
L 242.578688 165.699328 
L 240.690126 200.706619 
L 250.966646 167.188411 
L 284.708221 176.705934 
L 253.461157 192.602414 
L 268.64846 224.200246 
L 260.020088 190.220423 
L 225.854209 198.0798 
L 245.625082 169.128294 
L 275.01537 188.240805 
L 259.856763 156.629197 
L 291.118248 140.761094 
L 257.385328 131.21294 
L 247.078379 164.721803 
L 254.700778 130.502274 
L 289.083602 137.350525 
L 268.467419 108.994747 
L 239.653632 128.965795 
L 253.873275 96.920845 
L 222.157368 81.981688 
L 255.593994 71.442751 
L 266.884787 104.633037 
L 247.573073 76.343858 
L 276.317016 57.715768 
L 305.871 75.029982 
L 287.853368 104.160463 
L 272.106067 73.742664 
L 242.074461 90.214538 
L 276.265489 88.166712 
L 277.493187 122.397002 
L 267.59682 89.707663 
L 300.566919 80.791186 
L 266.665275 76.642747 
L 263.530343 110.653086 
L 278.597428 80.342875 
L 247.591565 66.764862 
L 265.999041 50.583529 
z
" style="fill:#fbf100;fill-opacity:0.65;"/>
   </g>
  </g>
 </g>
 <defs>
  <clipPath id="p7adb56d514">
   <rect height="324" width="439.2" x="10.8" y="10.8"/>
  </clipPath>
 </defs>
</svg>
