<?xml version="1.0" encoding="utf-8" standalone="no"?>
<!DOCTYPE svg PUBLIC "-//W3C//DTD SVG 1.1//EN"
  "http://www.w3.org/Graphics/SVG/1.1/DTD/svg11.dtd">
<!-- Created with matplotlib (https://matplotlib.org/) -->
<svg height="345.6pt" version="1.1" viewBox="0 0 460.8 345.6" width="460.8pt" xmlns="http://www.w3.org/2000/svg" xmlns:xlink="http://www.w3.org/1999/xlink">
 <metadata>
  <rdf:RDF xmlns:cc="http://creativecommons.org/ns#" xmlns:dc="http://purl.org/dc/elements/1.1/" xmlns:rdf="http://www.w3.org/1999/02/22-rdf-syntax-ns#">
   <cc:Work>
    <dc:type rdf:resource="http://purl.org/dc/dcmitype/StillImage"/>
    <dc:date>2021-11-09T11:36:33.664032</dc:date>
    <dc:format>image/svg+xml</dc:format>
    <dc:creator>
     <cc:Agent>
      <dc:title>Matplotlib v3.3.2, https://matplotlib.org/</dc:title>
     </cc:Agent>
    </dc:creator>
   </cc:Work>
  </rdf:RDF>
 </metadata>
 <defs>
  <style type="text/css">*{stroke-linecap:butt;stroke-linejoin:round;}</style>
 </defs>
 <g id="figure_1">
  <g id="patch_1">
   <path d="M 0 345.6 
L 460.8 345.6 
L 460.8 0 
L 0 0 
z
" style="fill:none;"/>
  </g>
  <g id="axes_1">
   <g id="PatchCollection_1">
    <path clip-path="url(#pd52e7fb954)" d="M 219.130393 299.922315 
L 217.088216 276.780448 
L 237.930974 266.519067 
L 256.199246 280.871304 
L 249.412567 303.089708 
L 238.335174 282.668938 
L 253.377653 264.964691 
L 275.847002 270.867642 
L 278.45654 293.952417 
L 290.508012 274.090934 
L 276.33884 255.68031 
L 299.459169 257.953383 
L 305.68872 280.334384 
L 308.847059 257.318273 
L 288.52464 246.061462 
L 310.641853 238.951932 
L 325.258612 257.009253 
L 330.231188 234.315862 
L 310.864871 221.483783 
L 333.475983 216.149546 
L 346.615606 235.308533 
L 342.152701 212.509433 
L 319.280458 208.437946 
L 337.904981 194.551131 
L 357.580405 206.904033 
L 349.566042 185.098381 
L 326.337702 184.69745 
L 342.530152 168.038486 
L 363.912385 177.122353 
L 372.143787 155.397701 
L 395.374969 155.228413 
L 379.349441 138.408813 
L 357.877691 147.279014 
L 346.024869 127.298345 
L 360.37692 109.029926 
L 337.235074 111.07234 
L 330.782659 133.390109 
L 327.853984 110.343648 
L 348.287641 99.290045 
L 326.242422 91.960324 
L 311.446328 109.870995 
L 312.20138 86.651468 
L 334.126694 78.970512 
L 313.519063 68.244745 
L 296.075236 83.588454 
L 306.00256 62.584532 
L 329.17408 64.256994 
L 314.532023 46.22018 
L 292.424799 53.360706 
L 287.090331 30.749648 
L 264.078702 27.558814 
L 277.504422 46.518417 
L 264.67254 65.884865 
L 268.770661 43.017379 
L 248.926213 30.937876 
L 229.450638 43.603516 
L 234.22855 66.338688 
L 241.893546 44.407789 
L 224.210556 29.340329 
L 202.976167 38.764617 
L 204.096313 61.969396 
L 193.864371 41.112171 
L 209.619161 24.03871 
L 186.388239 24.240561 
L 178.187298 45.976731 
L 157.183274 36.049621 
L 140.341064 52.051385 
L 163.535078 53.375854 
L 170.675829 75.483006 
L 155.352446 58.021321 
L 133.535499 66.004888 
L 154.289552 76.444513 
L 152.049126 99.568029 
L 139.681905 79.901602 
L 116.876526 84.332312 
L 135.717153 97.92449 
L 129.845933 120.402152 
L 126.320315 97.439432 
L 103.633968 92.434819 
L 89.307538 110.723338 
L 101.188357 130.687372 
L 123.562087 124.431761 
L 137.475185 143.036659 
L 114.388518 140.443924 
L 103.633665 161.03639 
L 83.482501 149.475807 
L 65.425031 164.092383 
L 88.44111 167.250957 
L 93.807267 189.854515 
L 114.909236 180.137343 
L 131.591045 196.306255 
L 108.384978 197.399377 
L 101.024138 219.434225 
L 116.52088 202.126208 
L 138.257133 210.326927 
L 117.400012 220.559082 
L 119.409748 243.703789 
L 136.229512 227.678433 
L 157.24743 237.57609 
L 135.644957 246.122999 
L 135.814007 269.354184 
L 144.872967 247.961387 
L 168.093536 248.683653 
L 151.672153 265.116993 
L 161.06645 286.364668 
L 166.626121 263.807927 
L 189.668424 260.846715 
L 176.054314 279.671499 
L 188.692443 299.164939 
L 184.822551 276.257725 
L 204.786464 264.376703 
L 224.134775 277.235917 
L 219.130393 299.922315 
L 202.845264 284.978397 
L 183.771903 296.146792 
L 205.259648 290.969634 
L 216.528898 309.98358 
L 217.8502 287.920482 
L 239.32573 282.692888 
L 220.278643 293.906034 
L 225.392431 315.408948 
L 242.88192 302.056653 
L 260.703024 314.963018 
L 240.903881 305.363021 
L 226.011531 321.56129 
L 214.782142 302.701885 
L 229.671025 286.574345 
L 218.228557 280.134102 
z
" style="fill:#ff8200;fill-opacity:0.65;"/>
    <path clip-path="url(#pd52e7fb954)" d="M 329.822317 228.733811 
L 305.534275 223.955118 
L 322.155119 205.611387 
L 346.710429 202.483826 
L 331.366319 183.059532 
L 308.662298 173.196858 
L 328.821787 158.832321 
L 353.477825 161.028839 
L 342.643082 138.772306 
L 319.244017 130.69588 
L 338.231642 114.814602 
L 315.203511 123.894806 
L 319.30116 99.482633 
L 294.716186 96.597507 
L 309.867893 77.022761 
L 289.314607 90.817953 
L 288.096342 66.094266 
L 265.839809 76.929008 
L 268.036328 52.27297 
L 258.173654 74.976991 
L 243.809117 54.817503 
L 224.384823 70.161613 
L 221.257261 45.606302 
L 216.478568 69.894344 
L 198.134837 53.2735 
L 190.058412 76.672565 
L 174.177133 57.68494 
L 183.257337 80.713071 
L 158.845164 76.615422 
L 155.960038 101.200396 
L 136.385292 86.04869 
L 150.180485 106.601976 
L 125.456797 107.82024 
L 136.291539 130.076773 
L 111.635501 127.880255 
L 91.476013 142.244792 
L 114.180034 152.107466 
L 129.524144 171.53176 
L 104.968833 174.659321 
L 88.347989 193.003051 
L 112.636031 197.781745 
L 113.854295 222.505433 
L 134.407581 208.71024 
L 119.255875 228.284987 
L 143.840849 231.170112 
L 139.7432 255.582285 
L 162.771331 246.502081 
L 143.783706 262.38336 
L 167.182771 270.459786 
L 185.526501 287.08063 
L 190.305195 262.792588 
L 193.432757 287.347898 
L 212.857051 272.003788 
L 227.221588 292.163276 
L 237.084262 269.459255 
L 234.887743 294.115293 
L 257.144276 283.280551 
L 281.867964 282.062287 
L 268.072771 261.509001 
L 287.647518 276.660707 
L 290.532644 252.075733 
L 314.944816 256.173382 
L 305.864613 233.145252 
L 321.745891 252.132876 
L 329.822317 228.733811 
L 307.867688 227.423615 
L 328.580479 220.027494 
L 346.40252 232.915365 
L 324.955937 228.040284 
L 320.008275 249.434976 
L 316.516738 227.755 
L 296.062294 234.537519 
z
" style="fill:#ffab00;fill-opacity:0.65;"/>
    <path clip-path="url(#pd52e7fb954)" d="M 281.327089 77.417258 
L 256.726321 54.442509 
L 243.008018 85.18084 
L 261.468219 57.033765 
L 228.845791 48.738341 
L 196.062609 56.373774 
L 213.951059 84.887634 
L 200.855831 53.878734 
L 175.796456 76.352376 
L 143.599356 86.16989 
L 163.36038 113.419455 
L 148.214398 83.358914 
L 124.719137 107.463054 
L 158.357089 106.228131 
L 148.577976 138.436916 
L 115.175867 134.273266 
L 122.108924 167.212143 
L 154.101357 177.677378 
L 133.794476 204.522628 
L 149.543977 174.773845 
L 172.548047 199.347198 
L 138.941864 197.433732 
L 148.069031 229.833295 
L 181.548358 226.344529 
L 173.952025 259.136793 
L 199.0114 236.663151 
L 212.106628 267.672051 
L 194.218178 239.158191 
L 227.00136 231.522759 
L 259.623788 239.818183 
L 241.163587 267.965258 
L 254.88189 237.226926 
L 279.482658 260.201676 
L 272.549601 227.262799 
L 305.95171 231.426449 
L 315.730822 199.217664 
L 282.09287 200.452587 
L 305.588132 176.348447 
L 320.734113 206.408988 
L 300.973089 179.159423 
L 333.170189 169.341908 
L 340.766523 136.549644 
L 307.287195 140.038411 
L 298.160029 107.638847 
L 331.766211 109.552313 
L 308.762142 84.978961 
L 293.01264 114.727743 
L 313.319521 87.882493 
L 281.327089 77.417258 
L 280.8673 46.452818 
L 306.655763 63.598173 
L 307.740302 32.649316 
L 281.611108 49.270783 
L 251.525792 47.182074 
L 269.532685 71.373823 
L 264.091454 44.517283 
z
" style="fill:#0000ad;fill-opacity:0.65;"/>
    <path clip-path="url(#pd52e7fb954)" d="M 304.037301 116.404106 
L 281.645421 104.814246 
L 287.912614 80.392054 
L 287.23478 105.596453 
L 262.521542 110.594155 
L 237.461626 113.372967 
L 229.127942 89.576521 
L 242.546009 110.923104 
L 224.756562 128.79086 
L 204.56046 113.696535 
L 214.735608 90.627345 
L 209.946768 115.381904 
L 184.748992 116.272546 
L 159.57192 114.917475 
L 155.240304 90.07883 
L 164.988386 113.331702 
L 144.517418 128.051098 
L 167.500273 138.419779 
L 182.76381 118.351255 
L 194.17882 140.832775 
L 174.833731 157.003387 
L 188.203937 178.37998 
L 212.036434 170.149957 
L 209.062415 195.187457 
L 183.996337 197.910116 
L 208.364992 204.382352 
L 220.142642 182.088673 
L 235.079122 202.40179 
L 218.637637 221.517195 
L 235.322392 240.420636 
L 257.488959 228.405458 
L 258.647786 253.592325 
L 234.363951 260.375873 
L 209.352332 257.191524 
L 206.840445 232.103448 
L 230.51715 240.77148 
L 244.279212 219.645032 
L 225.235555 203.120496 
L 237.063125 180.853261 
L 251.954056 201.199792 
L 275.124176 191.256618 
L 249.928458 192.203713 
L 243.349252 167.863721 
L 268.124421 172.544762 
L 278.247856 149.452833 
L 256.759124 136.263612 
L 264.787606 112.362469 
L 282.804248 130.001113 
L 304.037301 116.404106 
L 324.903354 106.384207 
L 316.581685 84.784661 
L 332.18781 101.879672 
L 316.393599 118.801061 
L 294.293432 111.918246 
L 299.389486 89.339035 
L 286.431939 108.519559 
L 304.516503 122.967364 
L 325.720021 132.215321 
L 336.607811 111.805277 
L 319.235735 127.080251 
L 302.641113 110.964036 
L 320.506595 96.586497 
L 307.274306 77.85696 
L 292.944769 84.273126 
z
" style="fill:#800000;fill-opacity:0.65;"/>
    <path clip-path="url(#pd52e7fb954)" d="M 262.140672 97.040007 
L 253.791134 83.485326 
L 242.545954 72.216339 
L 226.686036 73.597338 
L 211.569789 78.591659 
L 195.659886 79.156584 
L 180.307165 83.368246 
L 173.674304 97.840609 
L 170.550557 113.451066 
L 155.079141 117.203322 
L 140.886745 124.415815 
L 137.299169 139.926245 
L 137.377873 155.84598 
L 151.259009 163.640736 
L 162.973378 174.421168 
L 158.594223 189.726957 
L 157.8555 205.629738 
L 169.55826 194.836705 
L 183.430999 187.027015 
L 198.327165 192.643812 
L 211.530601 201.538384 
L 226.69549 206.383001 
L 240.338164 214.587975 
L 242.811961 230.314528 
L 241.599637 246.188231 
L 238.459092 230.581145 
L 231.81066 216.115928 
L 241.75572 203.684518 
L 254.295048 193.875878 
L 263.58876 180.950281 
L 275.607972 170.510803 
L 291.329259 173.017854 
L 306.051418 179.076087 
L 299.837026 164.419161 
L 290.415967 151.586085 
L 297.65846 137.408975 
L 307.969578 125.279466 
L 302.515872 110.322821 
L 293.766092 97.02299 
L 277.952389 95.186971 
L 262.140672 97.040007 
L 267.719632 87.710646 
L 276.097532 80.784422 
L 267.626395 73.972548 
L 257.364847 70.386129 
L 258.477383 61.954244 
L 263.05557 54.786635 
L 264.503391 53.643788 
z
" style="fill:#000080;fill-opacity:0.65;"/>
    <path clip-path="url(#pd52e7fb954)" d="M 291.412797 185.120299 
L 273.638196 156.382571 
L 262.942915 124.329421 
L 292.603187 140.517742 
L 325.189681 149.4572 
L 330.998089 116.169727 
L 329.001904 82.438307 
L 307.49242 108.498536 
L 280.570123 128.918708 
L 311.719539 115.822627 
L 339.026035 95.919141 
L 305.475692 91.898203 
L 273.747132 80.275298 
L 246.130244 60.804783 
L 223.726534 35.509186 
L 222.90589 69.289654 
L 229.869654 102.354733 
L 239.052068 69.835866 
L 240.516218 36.077167 
L 216.454225 59.800867 
L 187.584639 77.360492 
L 155.143129 86.812576 
L 121.39775 88.556956 
L 147.29672 110.260339 
L 177.489875 125.431589 
L 152.009145 103.238665 
L 132.310012 75.784383 
L 135.855541 109.388292 
L 131.584316 142.90769 
L 164.700447 136.190898 
L 195.386933 122.044058 
L 182.549919 153.30113 
L 162.87383 180.771932 
L 178.27 150.692847 
L 186.342266 117.880776 
L 195.551964 150.391927 
L 211.98598 179.916774 
L 178.747878 186.00135 
L 145.001048 184.285286 
L 168.544503 208.523668 
L 197.027698 226.703357 
L 176.407164 199.934213 
L 162.489743 169.143 
L 193.650137 182.212939 
L 226.980033 187.772749 
L 260.609467 184.478118 
L 292.581901 173.54391 
L 276.615397 203.324175 
L 254.23292 228.638562 
L 283.879598 212.425359 
L 309.007283 189.833482 
L 275.221631 189.264977 
L 242.470721 180.948047 
L 260.862484 152.601328 
L 272.248262 120.786905 
L 278.084601 154.069492 
L 291.412797 185.120299 
L 299.176284 153.021524 
L 299.17754 119.997243 
L 311.463852 150.650949 
L 330.611017 177.557995 
L 305.24412 158.91616 
L 285.252694 134.598667 
L 281.713034 136.256378 
z
" style="fill:#63ff94;fill-opacity:0.65;"/>
   </g>
  </g>
 </g>
 <defs>
  <clipPath id="pd52e7fb954">
   <rect height="324" width="439.2" x="10.8" y="10.8"/>
  </clipPath>
 </defs>
</svg>
