<svg id="Layer_1" data-name="Layer 1" xmlns="http://www.w3.org/2000/svg" xmlns:xlink="http://www.w3.org/1999/xlink" viewBox="0 0 608.84 463.18">
  <defs>
    <style>
      .cls-1, .cls-12, .cls-13, .cls-14, .cls-15, .cls-16, .cls-17, .cls-18, .cls-19, .cls-4, .cls-9 {
        fill: none;
      }

      .cls-2 {
        clip-path: url(#clip-path);
      }

      .cls-3 {
        fill: #fff;
      }

      .cls-4, .cls-9 {
        stroke: #272626;
        stroke-linecap: square;
      }

      .cls-19, .cls-4, .cls-9 {
        stroke-linejoin: round;
      }

      .cls-4 {
        stroke-width: 0.54px;
      }

      .cls-10, .cls-11, .cls-5, .cls-6 {
        isolation: isolate;
        fill: #272626;
        font-family: HelveticaNeue, Helvetica Neue;
      }

      .cls-5 {
        font-size: 16.31px;
      }

      .cls-6 {
        font-size: 27.18px;
      }

      .cls-7 {
        fill: #1372ba;
      }

      .cls-8 {
        clip-path: url(#clip-path-2);
      }

      .cls-9 {
        stroke-width: 0.22px;
      }

      .cls-10 {
        font-size: 11.12px;
      }

      .cls-11 {
        font-size: 12.24px;
      }

      .cls-12 {
        stroke: #1372ba;
      }

      .cls-12, .cls-13, .cls-14, .cls-15, .cls-16, .cls-17, .cls-18 {
        stroke-linejoin: bevel;
        stroke-width: 0.89px;
        stroke-dasharray: 0.89 0.89;
      }

      .cls-13 {
        stroke: #d95527;
      }

      .cls-14 {
        stroke: #ecb121;
      }

      .cls-15 {
        stroke: #7f2f8d;
      }

      .cls-16 {
        stroke: #76ac42;
      }

      .cls-17 {
        stroke: #50beed;
      }

      .cls-18 {
        stroke: #a21c31;
      }

      .cls-19 {
        stroke: #010101;
        stroke-width: 1.33px;
      }
    </style>
    <clipPath id="clip-path" transform="translate(-1.58 -66.47)">
      <rect class="cls-1" x="1.58" y="66.47" width="608.84" height="456.63"/>
    </clipPath>
    <clipPath id="clip-path-2" transform="translate(-1.58 -66.47)">
      <rect class="cls-1" x="93.09" y="101" width="249.15" height="186.86"/>
    </clipPath>
  </defs>
  <g>
    <g class="cls-2">
      <rect class="cls-3" width="608.84" height="456.63"/>
    </g>
    <g>
      <rect class="cls-3" width="608.84" height="456.63"/>
      <path class="cls-3" d="M81,463.31H552.8V100.18H81Z" transform="translate(-1.58 -66.47)"/>
    </g>
    <g>
      <line class="cls-4" x1="79.37" y1="396.83" x2="551.22" y2="396.83"/>
      <line class="cls-4" x1="79.37" y1="396.83" x2="79.37" y2="392.12"/>
      <line class="cls-4" x1="158.01" y1="396.83" x2="158.01" y2="392.12"/>
      <line class="cls-4" x1="236.65" y1="396.83" x2="236.65" y2="392.12"/>
      <line class="cls-4" x1="315.29" y1="396.83" x2="315.29" y2="392.12"/>
      <line class="cls-4" x1="393.93" y1="396.83" x2="393.93" y2="392.12"/>
      <line class="cls-4" x1="472.58" y1="396.83" x2="472.58" y2="392.12"/>
      <line class="cls-4" x1="551.22" y1="396.83" x2="551.22" y2="392.12"/>
    </g>
    <text class="cls-5" transform="translate(63.06 418.58)">0.65</text>
    <text class="cls-5" transform="translate(146.59 418.58)">0.7</text>
    <text class="cls-5" transform="translate(220.34 418.58)">0.75</text>
    <text class="cls-5" transform="translate(303.88 418.58)">0.8</text>
    <text class="cls-5" transform="translate(377.63 418.58)">0.85</text>
    <text class="cls-5" transform="translate(461.16 418.58)">0.9</text>
    <text class="cls-5" transform="translate(534.91 418.58)">0.95</text>
    <text class="cls-6" transform="translate(194.07 450.11)">overall performance</text>
    <g>
      <line class="cls-4" x1="79.37" y1="396.83" x2="79.37" y2="33.7"/>
      <line class="cls-4" x1="79.37" y1="396.83" x2="84.09" y2="396.83"/>
      <line class="cls-4" x1="79.37" y1="351.44" x2="84.09" y2="351.44"/>
      <line class="cls-4" x1="79.37" y1="306.05" x2="84.09" y2="306.05"/>
      <line class="cls-4" x1="79.37" y1="260.66" x2="84.09" y2="260.66"/>
      <line class="cls-4" x1="79.37" y1="215.27" x2="84.09" y2="215.27"/>
      <line class="cls-4" x1="79.37" y1="169.88" x2="84.09" y2="169.88"/>
      <line class="cls-4" x1="79.37" y1="124.49" x2="84.09" y2="124.49"/>
      <line class="cls-4" x1="79.37" y1="79.09" x2="84.09" y2="79.09"/>
      <line class="cls-4" x1="79.37" y1="33.7" x2="84.09" y2="33.7"/>
    </g>
    <text class="cls-5" transform="translate(51.1 402.81)">0.2</text>
    <text class="cls-5" transform="translate(51.1 357.42)">0.3</text>
    <text class="cls-5" transform="translate(51.1 312.03)">0.4</text>
    <text class="cls-5" transform="translate(51.1 266.64)">0.5</text>
    <text class="cls-5" transform="translate(51.1 221.25)">0.6</text>
    <text class="cls-5" transform="translate(51.1 175.86)">0.7</text>
    <text class="cls-5" transform="translate(51.1 130.47)">0.8</text>
    <text class="cls-5" transform="translate(51.1 85.07)">0.9</text>
    <text class="cls-5" transform="translate(64.15 39.68)">1</text>
    <text class="cls-6" transform="translate(41.31 381.07) rotate(-90)">generalization performance</text>
    <g>
      <circle class="cls-7" cx="83.01" cy="351.44" r="3.26"/>
      <circle class="cls-7" cx="546.53" cy="33.7" r="3.26"/>
      <circle class="cls-7" cx="504.87" cy="79.09" r="3.26"/>
      <circle class="cls-7" cx="536.12" cy="215.27" r="3.26"/>
      <circle class="cls-7" cx="499.66" cy="33.7" r="3.26"/>
      <circle class="cls-7" cx="234.05" cy="396.83" r="3.26"/>
      <circle class="cls-7" cx="348.62" cy="169.88" r="3.26"/>
      <circle class="cls-7" cx="468.41" cy="124.49" r="3.26"/>
      <circle class="cls-7" cx="510.07" cy="124.49" r="3.26"/>
      <circle class="cls-7" cx="280.92" cy="306.05" r="3.26"/>
      <circle class="cls-7" cx="161.13" cy="306.05" r="3.26"/>
    </g>
  </g>
  <g>
    <g class="cls-8">
      <rect class="cls-3" x="91.51" y="34.53" width="249.15" height="186.86"/>
    </g>
    <g>
      <rect class="cls-3" x="91.51" y="34.53" width="249.15" height="186.86"/>
      <path class="cls-3" d="M127.8,256.27H318.66V114.79H127.8Z" transform="translate(-1.58 -66.47)"/>
    </g>
    <g>
      <line class="cls-9" x1="126.22" y1="189.8" x2="317.08" y2="189.8"/>
      <line class="cls-9" x1="126.22" y1="189.8" x2="126.22" y2="187.89"/>
      <line class="cls-9" x1="185.86" y1="189.8" x2="185.86" y2="187.89"/>
      <line class="cls-9" x1="245.51" y1="189.8" x2="245.51" y2="187.89"/>
      <line class="cls-9" x1="305.15" y1="189.8" x2="305.15" y2="187.89"/>
    </g>
    <text class="cls-10" transform="translate(123.1 203.59)">0</text>
    <text class="cls-10" transform="translate(179.63 203.59)">10</text>
    <text class="cls-10" transform="translate(239.28 203.59)">20</text>
    <text class="cls-10" transform="translate(298.93 203.59)">30</text>
    <text class="cls-11" transform="translate(188.95 218.72)">trial number</text>
    <g>
      <line class="cls-9" x1="126.22" y1="189.8" x2="126.22" y2="48.32"/>
      <line class="cls-9" x1="126.22" y1="189.8" x2="128.13" y2="189.8"/>
      <line class="cls-9" x1="126.22" y1="161.51" x2="128.13" y2="161.51"/>
      <line class="cls-9" x1="126.22" y1="133.21" x2="128.13" y2="133.21"/>
      <line class="cls-9" x1="126.22" y1="104.91" x2="128.13" y2="104.91"/>
      <line class="cls-9" x1="126.22" y1="76.62" x2="128.13" y2="76.62"/>
      <line class="cls-9" x1="126.22" y1="48.32" x2="128.13" y2="48.32"/>
    </g>
    <text class="cls-10" transform="translate(116.87 193.81)">0</text>
    <text class="cls-10" transform="translate(107.53 165.51)">0.2</text>
    <text class="cls-10" transform="translate(107.53 137.21)">0.4</text>
    <text class="cls-10" transform="translate(107.53 108.92)">0.6</text>
    <text class="cls-10" transform="translate(107.53 80.62)">0.8</text>
    <text class="cls-10" transform="translate(116.87 52.32)">1</text>
    <text class="cls-11" transform="translate(103.53 198.03) rotate(-90)">performance (6-trial average)</text>
    <g>
      <path class="cls-12" d="M133.76,230.72l6-1,6,9.4,6,5.23,6-12,6-22.88,6-22.88,6-16.91,6-8.07,6,7,6,10.95,6,4.91,6-4.91,6-10.95,6-7,6,1.05h6l6-8.07,6,3.1,6,20.83,6,29.9,6,18,6,3.86,6,3.15h6l6-14,6-25.76,6-36.91,6-17,6,11,6,16.34,6-2.28" transform="translate(-1.58 -66.47)"/>
      <path class="cls-13" d="M133.76,176.51l6-16.38,6-22.11,6-16.21,6-6,6-1H318.66" transform="translate(-1.58 -66.47)"/>
      <path class="cls-14" d="M133.76,256.27l6-13.25,6-27.14,6-30.35,6-9.89,6,5,6,3.86,6,1.05h23.86l6-6,6-10.95,6-13,6-9.89,6-13,6-6,6,12,6,22.88,6,11,6-11,6-22.88,6-16.91,6-6,6-1h35.78" transform="translate(-1.58 -66.47)"/>
      <path class="cls-15" d="M133.76,176.51l6-16.38,6-22.11,6-16.21,6-6,6-1H318.66" transform="translate(-1.58 -66.47)"/>
      <path class="cls-16" d="M133.76,256.27l6-6.62,6-10.54,6-6.77,6-4.91,6-16.91,6-32,6-19.78,6-8,6-6,6-11.94,6-12,6-4.92,6-1h11.93l6,6,6,10.94,6,7,6-7,6-10.94,6-4.92,6-1h6l6,6,6,16.91,6,18h6l6-18,6-15.86,6-5.87,6-1.15" transform="translate(-1.58 -66.47)"/>
      <path class="cls-17" d="M133.76,230.72l6-7.64,6-7.2,6-18.35,6-22.94,6-17.9,6,1,6,14.86,6,13,6-11.93,6-30,6-20.78,6-7,6-1H318.66" transform="translate(-1.58 -66.47)"/>
      <path class="cls-18" d="M133.76,247.26l6-9.76,6-17.63,6-20.3,6-26,6-15.92,6-1,6,4.91,6-4.91,6-19,6-15.86,6-6,6,4.92,6,10.94,6,7,6-7,6-10.94,6-4.92,6-1h6l6,6,6,10.94,6,7,6-1.05h6l6,8.07,6,2.87,6-3.92,6-11.94,6-12,6-4.82,6-1.15" transform="translate(-1.58 -66.47)"/>
      <path class="cls-12" d="M133.76,221.7l6-17.39,6-18.78,6-21.82,6-25,6-10.94,6,10.94,6,28.85,6,27.86,6,13,6-11.93,6-27.86,6-28.85,6-18,6-6,6-1,6,6,6,10.94,6,13,6,9.89,6,13,6,6,6-12,6-16.91h6l6,18,6,15.86,6,6,6-4.91,6-10.95,6-9.22,6,1.14" transform="translate(-1.58 -66.47)"/>
      <path class="cls-13" d="M133.76,247.26l6-23,6-32.66,6-17,6,12,6,16.92,6-2.11,6-9.89,6-10.88,6-18,6-23.93,6-16.91,6-6,6-1H318.66" transform="translate(-1.58 -66.47)"/>
      <path class="cls-14" d="M133.76,211.09l6,7.64,6,7.19,6,.46,6-15.86,6-26,6-14.81,6-6,6-3.16,6,8.07,6,5,6-12,6-16.91,6-6,6,1.06,6-8.08,6-5,6,6,6,17.91,6,26.8,6,25,6-4.92,6-37,6-31.72,6-11.94,6-2.1,6,6,6,16.91,6,18h6l6-15.86,6-14.61" transform="translate(-1.58 -66.47)"/>
      <path class="cls-15" d="M133.76,230.72l6-1,6-2.72,6-16.47,6-20.07,6-3.87,6-4.91,6-27.09,6-20.83,6,.06,6,4.91,6-7,6-10.94,6-4.92,6-1,6,6,6,16.91,6,23.93,6,22.88,6,22.88,6,13,6-16.91,6-35.93,6-21.83,6-4.91,6-9.13,6-10.94,6-4.92,6-1h17.89" transform="translate(-1.58 -66.47)"/>
    </g>
    <path class="cls-19" d="M133.76,227.59l6-7.5,6-10.1,6-11.74,6-11,6-7.84,6-4.59,6-1.93,6-1.94,6-2.85,6-6.11,6-8.23,6-7.24,6-1.93,6,1.07,6-1,6-2.39,6,.54,6,6.84,6,11.66,6,11.37,6,2.33,6-6.72,6-6.6,6-2.46,6-.68,6-2.85,6-4.52,6-2.86,6,.54,6,1.18,6-.14" transform="translate(-1.58 -66.47)"/>
  </g>
</svg>
