<?xml version="1.0" encoding="utf-8" standalone="no"?>
<!DOCTYPE svg PUBLIC "-//W3C//DTD SVG 1.1//EN"
  "http://www.w3.org/Graphics/SVG/1.1/DTD/svg11.dtd">
<!-- Created with matplotlib (https://matplotlib.org/) -->
<svg height="345.6pt" version="1.1" viewBox="0 0 460.8 345.6" width="460.8pt" xmlns="http://www.w3.org/2000/svg" xmlns:xlink="http://www.w3.org/1999/xlink">
 <metadata>
  <rdf:RDF xmlns:cc="http://creativecommons.org/ns#" xmlns:dc="http://purl.org/dc/elements/1.1/" xmlns:rdf="http://www.w3.org/1999/02/22-rdf-syntax-ns#">
   <cc:Work>
    <dc:type rdf:resource="http://purl.org/dc/dcmitype/StillImage"/>
    <dc:date>2021-11-09T11:36:33.479452</dc:date>
    <dc:format>image/svg+xml</dc:format>
    <dc:creator>
     <cc:Agent>
      <dc:title>Matplotlib v3.3.2, https://matplotlib.org/</dc:title>
     </cc:Agent>
    </dc:creator>
   </cc:Work>
  </rdf:RDF>
 </metadata>
 <defs>
  <style type="text/css">*{stroke-linecap:butt;stroke-linejoin:round;}</style>
 </defs>
 <g id="figure_1">
  <g id="patch_1">
   <path d="M 0 345.6 
L 460.8 345.6 
L 460.8 0 
L 0 0 
z
" style="fill:none;"/>
  </g>
  <g id="axes_1">
   <g id="PatchCollection_1">
    <path clip-path="url(#p5567eee4e3)" d="M 234.907761 40.693577 
L 214.362359 82.612381 
L 253.682456 107.776436 
L 255.989495 154.402365 
L 209.925484 161.979079 
L 220.706301 207.40015 
L 176.799794 223.259482 
L 146.052243 258.386221 
L 107.666948 231.818029 
L 103.850866 278.344766 
L 149.64529 287.409556 
L 185.333128 317.50404 
L 219.278521 285.457043 
L 248.872153 321.56129 
L 288.097873 296.250372 
L 334.673324 293.08381 
L 336.805985 246.449579 
L 295.353226 267.919755 
L 269.323177 229.167513 
L 227.790419 207.852502 
L 244.260798 164.171542 
L 199.534588 150.797467 
L 207.753257 104.843651 
L 249.954634 84.885107 
L 234.907761 40.693577 
L 204.665639 61.693168 
L 236.536465 80.127353 
L 265.839022 102.419255 
L 273.54589 66.416853 
L 282.908014 100.080741 
L 304.811724 72.856961 
L 274.878974 81.234336 
z
" style="fill:#4dffaa;fill-opacity:0.65;"/>
    <path clip-path="url(#p5567eee4e3)" d="M 227.882847 292.285204 
L 233.950552 256.224866 
L 270.414667 258.969567 
L 257.042901 224.934866 
L 289.712201 208.506784 
L 286.73474 172.060937 
L 322.755602 165.763118 
L 301.432109 136.056659 
L 329.064146 112.105969 
L 294.506221 100.151268 
L 279.44142 133.471184 
L 255.976917 105.425112 
L 225.902618 126.226593 
L 195.340833 106.14819 
L 172.551799 134.745829 
L 156.696723 101.794629 
L 122.433701 114.570012 
L 150.629018 137.854967 
L 130.019979 168.061466 
L 166.180778 173.498529 
L 164.073264 210.005013 
L 197.125024 225.649379 
L 184.568665 259.993271 
L 220.95696 256.379813 
L 227.882847 292.285204 
L 202.615277 297.897055 
L 226.432666 308.02992 
L 218.072371 283.534033 
L 239.121552 298.596402 
L 259.565335 283.052561 
L 250.738694 307.169975 
L 235.54049 287.767455 
z
" style="fill:#000080;fill-opacity:0.65;"/>
    <path clip-path="url(#p5567eee4e3)" d="M 326.525687 208.109387 
L 303.433722 195.675456 
L 319.903913 175.265304 
L 296.094273 186.262692 
L 289.665168 160.836168 
L 315.888728 161.244098 
L 311.465023 135.393134 
L 326.886921 156.606492 
L 344.900801 137.54497 
L 319.926665 129.536596 
L 332.393132 106.462179 
L 358.329966 102.573459 
L 349.73571 77.794834 
L 328.046592 92.540128 
L 317.543421 68.50838 
L 316.308769 94.706035 
L 290.785474 88.672553 
L 315.726205 80.560745 
L 303.164215 57.538192 
L 277.211487 53.756999 
L 285.702977 28.942969 
L 266.741797 47.062437 
L 252.420158 25.091271 
L 255.521712 51.133964 
L 229.352948 49.391177 
L 203.131304 49.907785 
L 207.447834 24.03871 
L 192.113985 45.3158 
L 174.021261 26.329099 
L 181.342562 51.513222 
L 155.241354 54.076112 
L 141.61604 76.48576 
L 166.149962 85.755504 
L 140.372345 90.588307 
L 140.364666 64.361576 
L 128.748704 87.875633 
L 107.773173 72.131789 
L 98.029092 96.481212 
L 123.755598 101.579094 
L 135.12891 125.211472 
L 109.807459 132.042696 
L 126.909847 151.926102 
L 143.307297 131.457464 
L 137.679033 157.073165 
L 163.892964 157.892516 
L 156.281354 182.990422 
L 133.012282 170.891174 
L 148.509578 192.049513 
L 124.861192 203.389503 
L 149.056363 193.268476 
L 134.656623 171.348417 
L 157.279373 184.616901 
L 166.159172 159.939164 
L 169.63639 185.934365 
L 194.548094 177.733847 
L 175.850487 196.125176 
L 197.367897 211.119927 
L 217.514488 227.911484 
L 230.312789 205.019455 
L 228.984911 231.212551 
L 254.975184 227.698695 
L 251.605731 253.708084 
L 226.660254 245.610881 
L 245.433922 263.924561 
L 223.978841 279.008361 
L 203.252928 262.93733 
L 222.862821 245.522003 
L 197.565841 252.4433 
L 195.416891 226.304755 
L 221.214316 231.030683 
L 221.1133 204.804145 
L 232.826615 228.269859 
L 253.736716 212.439219 
L 275.932075 198.467549 
L 258.115354 179.221616 
L 282.616131 188.578615 
L 287.305692 162.774554 
L 295.021253 187.840699 
L 318.239981 175.645118 
L 302.830507 196.867503 
L 326.525687 208.109387 
L 301.944303 203.325657 
L 313.849905 181.294199 
L 338.888842 180.869771 
L 331.00703 157.099926 
L 337.477358 181.292143 
L 358.633778 167.893097 
L 340.720507 185.392904 
L 362.770908 197.263387 
L 338.440259 200.838746 
L 343.520267 176.777217 
L 336.219523 200.260462 
L 316.722832 185.272377 
L 335.035227 196.581962 
L 328.531317 176.064903 
L 308.750239 180.053014 
z
" style="fill:#0008ff;fill-opacity:0.65;"/>
    <path clip-path="url(#p5567eee4e3)" d="M 134.437686 161.046152 
L 137.302855 133.267668 
L 156.993683 153.069807 
L 172.565013 129.888196 
L 180.654063 156.616844 
L 202.783153 139.582857 
L 201.961931 167.496634 
L 229.497797 162.845883 
L 215.667633 187.10655 
L 235.448937 167.394792 
L 238.186866 195.186105 
L 264.906945 187.068793 
L 254.276797 212.892296 
L 282.191428 213.683997 
L 263.908267 234.79275 
L 237.855093 244.84688 
L 262.130373 258.651378 
L 286.715024 245.405689 
L 260.898613 234.758328 
L 243.103012 213.236945 
L 271.028447 213.083884 
L 290.131611 192.714237 
L 262.270082 190.819875 
L 269.573824 163.866049 
L 244.084366 175.273982 
L 266.783385 159.007208 
L 239.82185 151.731976 
L 219.432011 132.650365 
L 247.110895 128.944592 
L 233.839214 104.373962 
L 261.261509 109.653268 
L 261.078916 81.728009 
L 282.812635 99.263654 
L 287.13209 71.673879 
L 263.039403 85.794639 
L 253.900268 59.406581 
L 239.257319 83.18551 
L 222.208583 61.06778 
L 215.878343 88.266703 
L 190.441395 76.742163 
L 197.621626 103.729153 
L 183.526354 79.621547 
L 173.78609 105.793682 
L 150.022661 91.125594 
L 153.709982 118.806942 
L 126.517768 112.447941 
L 138.807967 137.523913 
L 111.813398 144.675601 
L 134.437686 161.046152 
L 111.070526 149.516964 
L 137.100115 148.330871 
L 151.849195 126.850392 
L 128.561798 138.539852 
L 122.875888 113.111192 
L 140.13284 132.6341 
L 156.99025 112.765178 
L 151.82129 138.303937 
L 174.898572 126.746155 
L 149.11059 127.806002 
L 137.064454 104.979836 
L 157.422693 120.84443 
L 182.265499 115.556227 
L 156.870501 115.082739 
L 148.457672 91.292427 
z
" style="fill:#00a0ff;fill-opacity:0.65;"/>
    <path clip-path="url(#p5567eee4e3)" d="M 159.227981 130.489084 
L 139.084973 143.242193 
L 147.868679 165.405881 
L 156.139215 143.045631 
L 179.647639 147.012562 
L 203.301442 149.992516 
L 204.773375 173.787809 
L 187.781503 157.064806 
L 168.189673 170.649457 
L 187.246378 184.975118 
L 176.715502 206.363974 
L 170.262686 183.413076 
L 146.512039 185.484144 
L 122.695541 186.559761 
L 119.322243 210.160681 
L 137.599089 194.852531 
L 156.039778 209.96291 
L 174.792124 224.684731 
L 163.815387 245.848232 
L 159.696564 222.365945 
L 182.00288 213.951029 
L 158.900411 208.063883 
L 148.818685 229.66808 
L 170.753424 220.32732 
L 184.011278 240.141755 
L 207.597448 243.616686 
L 208.570461 267.437597 
L 223.760136 249.06217 
L 208.530859 230.719551 
L 185.552378 237.073442 
L 187.521117 260.83279 
L 201.928734 241.837973 
L 223.272028 252.460888 
L 245.397673 243.58179 
L 258.237434 263.669673 
L 262.103061 240.144379 
L 239.707392 231.970241 
L 223.05774 249.033993 
L 236.72666 268.567122 
L 239.604694 244.900702 
L 263.393425 243.32628 
L 278.195889 224.637524 
L 299.311909 235.705325 
L 290.99316 213.362967 
L 267.493348 217.380598 
L 289.053916 227.555294 
L 283.067306 250.632188 
L 273.821121 228.657417 
L 293.692482 215.485039 
L 275.251794 200.374661 
L 256.974948 215.68281 
L 260.348245 192.081891 
L 284.164744 191.006274 
L 307.91539 188.935206 
L 314.368206 211.886103 
L 324.899083 190.497247 
L 305.842378 176.171587 
L 325.434207 162.586935 
L 342.426079 179.309938 
L 340.954146 155.514646 
L 317.300343 152.534692 
L 293.791919 148.567761 
L 285.521383 170.92801 
L 276.737678 148.764323 
L 296.880685 136.011213 
L 275.537391 125.388298 
L 261.129773 144.383116 
L 259.161035 120.623768 
L 282.139516 114.269877 
L 297.368793 132.612496 
L 282.179118 150.987923 
L 281.206104 127.167012 
L 257.619935 123.69208 
L 244.36208 103.877646 
L 222.427342 113.218406 
L 232.509068 91.614209 
L 255.611536 97.501355 
L 233.30522 105.91627 
L 237.424044 129.398558 
L 248.400781 108.235057 
L 229.648434 93.513236 
L 209.777073 106.685613 
L 219.023259 128.660385 
L 225.009868 105.583491 
L 203.4493 95.408794 
L 226.949112 91.391163 
L 235.267861 113.733521 
L 214.151841 102.66572 
L 199.349377 121.354476 
L 175.560646 122.928898 
L 172.682613 146.595318 
L 159.013692 127.062189 
L 175.663344 109.998437 
L 198.059013 118.172576 
L 194.193386 141.69787 
L 181.353625 121.609986 
L 159.227981 130.489084 
L 178.433356 117.266975 
L 194.369687 134.287667 
L 188.329973 111.766733 
L 165.160485 114.383113 
L 142.275034 109.919175 
L 134.450715 131.883934 
L 151.699258 116.194499 
L 169.783775 130.912544 
L 191.175582 140.094995 
L 185.220968 162.599869 
L 170.263833 144.761402 
L 185.722587 127.355836 
L 163.114624 131.115935 
L 164.153456 154.010894 
L 149.6901 149.305605 
z
" style="fill:#800000;fill-opacity:0.65;"/>
    <path clip-path="url(#p5567eee4e3)" d="M 252.638575 233.879804 
L 291.532715 240.401457 
L 324.676534 261.773714 
L 332.372668 223.094836 
L 324.144149 184.525708 
L 284.800939 181.805788 
L 247.589696 194.867545 
L 249.117305 155.460026 
L 266.105721 119.86958 
L 296.023156 145.564584 
L 313.339241 180.996763 
L 274.022803 184.079586 
L 239.131086 202.460397 
L 201.786128 215.134789 
L 172.498543 241.545459 
L 174.435551 202.155941 
L 160.636398 165.211801 
L 125.555571 183.229062 
L 100.460583 213.651549 
L 137.976687 225.810006 
L 167.625511 251.814493 
L 200.989619 272.8412 
L 223.317641 305.348823 
L 230.61145 266.592063 
L 252.638575 233.879804 
L 272.552479 264.747097 
L 277.531329 301.141663 
L 290.852854 266.908779 
L 317.410576 241.53082 
L 342.106297 263.293238 
L 353.695748 294.101778 
L 356.570909 286.676476 
z
" style="fill:#87ff70;fill-opacity:0.65;"/>
   </g>
  </g>
 </g>
 <defs>
  <clipPath id="p5567eee4e3">
   <rect height="324" width="439.2" x="10.8" y="10.8"/>
  </clipPath>
 </defs>
</svg>
