<?xml version="1.0" encoding="utf-8" standalone="no"?>
<!DOCTYPE svg PUBLIC "-//W3C//DTD SVG 1.1//EN"
  "http://www.w3.org/Graphics/SVG/1.1/DTD/svg11.dtd">
<!-- Created with matplotlib (https://matplotlib.org/) -->
<svg height="345.6pt" version="1.1" viewBox="0 0 460.8 345.6" width="460.8pt" xmlns="http://www.w3.org/2000/svg" xmlns:xlink="http://www.w3.org/1999/xlink">
 <metadata>
  <rdf:RDF xmlns:cc="http://creativecommons.org/ns#" xmlns:dc="http://purl.org/dc/elements/1.1/" xmlns:rdf="http://www.w3.org/1999/02/22-rdf-syntax-ns#">
   <cc:Work>
    <dc:type rdf:resource="http://purl.org/dc/dcmitype/StillImage"/>
    <dc:date>2021-11-09T11:36:33.442246</dc:date>
    <dc:format>image/svg+xml</dc:format>
    <dc:creator>
     <cc:Agent>
      <dc:title>Matplotlib v3.3.2, https://matplotlib.org/</dc:title>
     </cc:Agent>
    </dc:creator>
   </cc:Work>
  </rdf:RDF>
 </metadata>
 <defs>
  <style type="text/css">*{stroke-linecap:butt;stroke-linejoin:round;}</style>
 </defs>
 <g id="figure_1">
  <g id="patch_1">
   <path d="M 0 345.6 
L 460.8 345.6 
L 460.8 0 
L 0 0 
z
" style="fill:none;"/>
  </g>
  <g id="axes_1">
   <g id="PatchCollection_1">
    <path clip-path="url(#p082a21769b)" d="M 112.461931 192.351207 
L 131.936463 204.379901 
L 110.73458 213.007008 
L 90.677255 224.03654 
L 111.416249 233.723696 
L 126.751338 250.71728 
L 131.42456 228.309517 
L 144.68371 246.968076 
L 151.926034 225.254126 
L 162.759438 245.418059 
L 140.087269 242.268517 
L 153.187722 261.038839 
L 130.303231 260.541952 
L 135.067372 282.930561 
L 150.333354 265.874869 
L 152.466839 288.66511 
L 169.609166 273.496476 
L 163.225554 295.478203 
L 184.74009 287.663373 
L 175.848381 308.755655 
L 198.124525 303.490652 
L 220.984348 304.663385 
L 208.444134 285.514237 
L 231.013362 289.332195 
L 220.780378 268.857018 
L 204.247247 284.687445 
L 226.783288 288.696648 
L 208.524581 302.50123 
L 230.443008 309.09891 
L 249.642902 321.56129 
L 248.377385 298.706415 
L 266.001121 313.312948 
L 267.396733 290.465648 
L 278.426266 310.522972 
L 288.113421 289.783978 
L 296.740529 310.985862 
L 308.769222 291.51133 
L 287.055272 284.269006 
L 305.713831 271.009856 
L 283.306068 266.336634 
L 300.299652 251.001545 
L 299.802765 273.886037 
L 318.573087 260.785584 
L 315.423545 283.457753 
L 335.587478 272.624348 
L 357.976087 267.860207 
L 340.920394 252.594225 
L 363.710635 250.46074 
L 348.542001 233.318413 
L 328.066824 243.551397 
L 331.884783 220.982169 
L 312.735634 233.522383 
L 313.908368 210.662559 
L 335.890095 217.046172 
L 328.075265 195.531636 
L 349.167547 204.423345 
L 343.902544 182.147201 
L 359.732971 198.680332 
L 363.742174 176.144292 
L 377.546755 194.402998 
L 384.144436 172.484571 
L 361.297136 171.088959 
L 375.903668 153.465223 
L 353.048793 154.73074 
L 365.511173 135.530846 
L 348.368846 150.69948 
L 346.235361 127.909239 
L 330.969379 144.964931 
L 326.205238 122.576322 
L 349.089729 123.073209 
L 335.989276 104.302887 
L 358.661445 107.45243 
L 347.828041 87.288497 
L 340.585717 109.002446 
L 327.326567 90.343888 
L 322.653345 112.751651 
L 307.318256 95.758066 
L 286.579262 86.070911 
L 306.636587 75.041378 
L 327.83847 66.414271 
L 308.363938 54.385578 
L 306.968326 77.232878 
L 289.344591 62.626345 
L 290.610107 85.48122 
L 271.410213 73.01884 
L 249.491786 66.42116 
L 267.750493 52.616578 
L 245.214452 48.607375 
L 261.747583 32.776948 
L 271.980567 53.252126 
L 249.41134 49.434167 
L 261.951554 68.583315 
L 239.09173 67.410582 
L 216.815586 72.675585 
L 225.707295 51.583303 
L 204.192759 59.398133 
L 210.576372 37.416406 
L 225.745006 54.558733 
L 202.954765 56.692218 
L 220.010457 71.9582 
L 197.621848 76.722341 
L 177.457915 87.555746 
L 180.607457 64.883577 
L 161.837135 77.98403 
L 162.334022 55.099538 
L 145.340438 70.434627 
L 167.748201 75.107849 
L 149.089643 88.366999 
L 170.803592 95.609323 
L 158.774899 115.083855 
L 150.147792 93.881971 
L 140.460636 114.620965 
L 129.431103 94.563641 
L 116.968723 113.763535 
L 139.823598 112.498018 
L 125.217066 130.121754 
L 148.064366 131.517366 
L 141.466685 153.435793 
L 127.662104 135.177086 
L 123.652901 157.713127 
L 107.822474 141.179996 
L 113.087477 163.45614 
L 91.995195 154.564431 
L 99.810025 176.078967 
L 77.828298 169.695354 
L 76.655564 192.555178 
L 95.804713 180.014964 
L 91.986754 202.584192 
L 112.461931 192.351207 
L 106.039518 213.42777 
L 125.351326 202.820087 
L 115.945926 222.74513 
L 136.58973 215.044335 
L 114.581601 213.99022 
L 131.075566 199.381387 
L 109.146616 201.523823 
L 123.352416 184.681492 
L 132.359832 204.72053 
L 112.03811 196.370428 
L 123.906961 214.85899 
L 102.574683 209.602521 
L 101.456753 229.989982 
L 101.370172 209.572078 
L 121.70838 211.27287 
z
" style="fill:#000080;fill-opacity:0.65;"/>
    <path clip-path="url(#p082a21769b)" d="M 274.980046 274.959579 
L 264.890097 253.268125 
L 281.73306 236.278692 
L 269.52625 215.703949 
L 284.587386 197.11663 
L 297.636534 177.065545 
L 320.96964 182.346869 
L 331.950034 161.092288 
L 355.694072 164.015799 
L 365.811807 142.337292 
L 348.990627 125.32629 
L 361.223791 104.767206 
L 346.186485 86.160603 
L 333.163041 66.092814 
L 309.823186 71.344235 
L 298.870036 50.075602 
L 275.122272 52.968686 
L 257.631338 36.647121 
L 236.254884 47.388324 
L 220.482289 29.400788 
L 198.139575 37.95236 
L 175.029508 44.137103 
L 172.811494 67.957403 
L 149.199113 71.802098 
L 144.612136 95.281576 
L 123.684409 106.872801 
L 127.294214 130.522232 
L 105.313049 139.964407 
L 106.5418 163.856172 
L 127.454657 175.474203 
L 123.814552 199.118989 
L 145.783599 208.589322 
L 144.524236 232.479493 
L 162.036069 216.180353 
L 183.398742 226.94894 
L 199.194373 208.981628 
L 221.526111 217.561822 
L 244.628234 223.776173 
L 246.815724 247.599295 
L 270.423159 251.474243 
L 274.980046 274.959579 
L 273.578595 258.338854 
L 258.449703 265.362328 
L 260.475555 248.806106 
L 244.230374 252.58852 
L 246.879503 239.141615 
L 246.179718 252.829107 
L 232.713262 250.478097 
z
" style="fill:#00e0fb;fill-opacity:0.65;"/>
    <path clip-path="url(#p082a21769b)" d="M 239.452482 60.202035 
L 224.411344 58.558158 
L 209.358099 57.029127 
L 204.039749 71.194341 
L 198.829665 85.399733 
L 184.322538 89.698733 
L 169.848644 94.108329 
L 170.535626 109.223427 
L 171.107226 124.343328 
L 157.611676 131.184986 
L 144.168736 138.129444 
L 147.566954 152.873604 
L 150.852542 167.643271 
L 141.051414 179.170458 
L 131.33855 190.772113 
L 140.172773 203.056031 
L 148.912985 215.407016 
L 155.134059 201.614396 
L 161.46022 187.869657 
L 176.36398 190.480417 
L 191.24738 193.204849 
L 202.317089 182.889826 
L 213.465201 172.65959 
L 226.200749 180.829288 
L 238.873573 189.095949 
L 251.620141 180.943456 
L 264.428559 172.888485 
L 275.484328 183.218447 
L 286.460935 193.632487 
L 301.368207 191.041856 
L 316.294818 188.565075 
L 322.49726 202.366084 
L 328.59419 216.214029 
L 337.444993 203.942052 
L 346.3892 191.737983 
L 336.78094 180.04955 
L 327.083752 168.434789 
L 330.501876 153.695231 
L 334.032397 138.98219 
L 320.652378 131.91726 
L 307.218828 124.954655 
L 307.92622 109.840498 
L 308.748947 94.73218 
L 294.315246 90.19275 
L 279.84732 85.763613 
L 274.765047 71.511994 
L 269.574151 57.299579 
L 254.507778 58.693332 
L 239.452482 60.202035 
L 246.154206 52.592311 
L 252.94216 45.059404 
L 242.802386 45.136895 
L 232.664153 45.329857 
L 227.842078 36.409734 
L 222.918729 27.545106 
L 219.593197 37.124346 
L 216.376974 46.740838 
L 221.482347 38.641154 
L 226.68504 30.603636 
L 218.277977 35.18523 
L 209.926785 39.867889 
L 205.084366 31.951575 
L 200.143811 24.096132 
L 200.149865 24.03871 
z
" style="fill:#ffcc00;fill-opacity:0.65;"/>
    <path clip-path="url(#p082a21769b)" d="M 180.71042 94.345443 
L 175.988321 115.774065 
L 169.279535 94.882051 
L 188.960855 104.584096 
L 167.071261 106.110435 
L 169.691198 127.89621 
L 156.458996 110.392128 
L 136.301741 119.062139 
L 158.082947 121.719787 
L 162.498549 143.213658 
L 147.861838 126.865854 
L 128.492059 137.175835 
L 150.418557 138.020058 
L 161.68502 156.849579 
L 142.470518 146.253025 
L 127.592598 162.381618 
L 148.567595 155.936966 
L 149.451955 177.861882 
L 159.72646 158.473263 
L 138.646861 164.567072 
L 159.927934 169.914962 
L 153.521691 190.901721 
L 169.623021 175.994301 
L 187.943786 188.070461 
L 166.034424 186.860535 
L 157.911716 207.244491 
L 175.192595 193.722093 
L 192.450039 207.274387 
L 170.716205 204.253712 
L 182.5295 222.745064 
L 163.012788 212.716008 
L 148.613793 229.273573 
L 169.390969 222.217159 
L 185.519563 237.095079 
L 179.074911 216.120082 
L 168.478357 235.334584 
L 187.307878 224.068122 
L 197.617859 243.4379 
L 198.462081 221.511402 
L 182.114277 236.148114 
L 203.608148 231.732511 
L 212.278159 251.889766 
L 214.935807 230.10856 
L 197.431726 243.340763 
L 219.2175 240.720826 
L 220.74384 262.61042 
L 230.445884 242.929099 
L 209.553871 249.637886 
L 230.982492 254.359984 
L 252.907408 253.475624 
L 233.518788 243.201119 
L 239.612598 264.280718 
L 244.960488 242.999645 
L 265.947247 249.405888 
L 251.039827 233.304558 
L 249.829902 255.213919 
L 261.906061 236.893155 
L 282.290016 245.015863 
L 268.767619 227.734984 
L 265.746944 249.468818 
L 279.299238 232.211374 
L 295.856803 246.610369 
L 288.80039 225.833193 
L 278.771334 245.349906 
L 297.262685 233.53661 
L 276.287688 239.981262 
L 291.165608 223.852668 
L 310.38011 234.449222 
L 299.113647 215.619701 
L 277.187149 214.775479 
L 296.556928 204.465498 
L 311.193639 220.813302 
L 306.778037 199.319431 
L 284.996831 196.661783 
L 305.154086 187.991772 
L 318.386288 205.495853 
L 315.766351 183.710079 
L 337.655945 182.18374 
L 317.974625 172.481695 
L 324.683411 193.373708 
L 329.40551 171.945087 
L 308.628334 179.001501 
L 323.027329 162.443935 
L 342.544041 172.472992 
L 330.730746 153.98164 
L 352.46458 157.002315 
L 335.207136 143.450021 
L 317.926257 156.972418 
L 326.048965 136.588463 
L 347.958326 137.798388 
L 329.637562 125.722229 
L 313.536231 140.629649 
L 319.942475 119.64289 
L 298.661401 114.295 
L 319.741001 108.20119 
L 309.466496 127.58981 
L 308.582136 105.664894 
L 287.153514 100.942795 
L 308.045528 94.234009 
L 298.343483 113.915329 
L 296.817144 92.025736 
L 275.03137 94.645672 
L 292.535451 81.41347 
L 289.877803 103.194676 
L 281.207792 83.037421 
L 259.713921 87.453023 
L 276.061725 72.816312 
L 275.217503 94.74281 
L 264.907521 75.373032 
L 246.078 86.639494 
L 256.674554 67.424992 
L 263.119206 88.399989 
L 246.990613 73.522069 
L 228.499261 85.335365 
L 238.528317 65.818652 
L 245.584731 86.595829 
L 229.027166 72.196833 
L 215.474872 89.454277 
L 218.495547 67.720443 
L 232.017944 85.001322 
L 211.633989 76.878614 
L 199.557829 95.199378 
L 200.767755 73.290017 
L 215.675175 89.391348 
L 194.688415 82.985104 
L 189.340525 104.266178 
L 183.246716 83.186578 
L 202.635336 93.461083 
L 180.71042 94.345443 
L 197.631626 107.623342 
L 186.256967 89.368289 
L 184.224701 110.780896 
L 178.828234 89.960042 
L 158.66212 97.440528 
L 175.065205 83.527634 
L 195.634579 89.814979 
L 174.154359 90.924026 
L 194.609391 97.509389 
L 177.489629 84.521353 
L 187.806417 103.371796 
L 171.828937 89.001846 
L 153.482728 100.165314 
L 167.217632 83.655958 
L 168.210975 104.816275 
z
" style="fill:#800000;fill-opacity:0.65;"/>
    <path clip-path="url(#p082a21769b)" d="M 251.707623 87.182986 
L 245.573534 151.112793 
L 230.030059 88.798688 
L 172.19761 116.728154 
L 217.400437 71.10632 
L 278.093981 92.104913 
L 213.872147 92.555759 
L 227.415611 155.33491 
L 193.705576 100.66974 
L 234.573321 150.212396 
L 179.519698 117.140566 
L 158.375096 177.783398 
L 158.078813 113.560665 
L 212.047052 148.375553 
L 149.556345 133.558035 
L 104.463447 179.288525 
L 162.228511 151.219956 
L 107.563341 184.929991 
L 170.342493 171.386527 
L 170.793338 235.608361 
L 191.791932 174.914816 
L 129.477827 190.458291 
L 193.407634 196.59238 
L 221.3371 254.424829 
L 175.715266 209.222003 
L 160.897748 271.71271 
L 195.712636 217.74447 
L 241.443126 262.837369 
L 213.374557 205.072304 
L 274.017389 226.216907 
L 209.794656 226.51319 
L 176.722826 281.566812 
L 226.265482 240.699068 
L 259.975517 295.364238 
L 246.432052 232.585086 
L 310.653887 232.134241 
L 249.960342 211.135648 
L 204.757516 256.757482 
L 262.589965 228.828016 
L 278.13344 291.14212 
L 284.267528 227.212313 
L 226.502464 255.280882 
L 271.595362 209.550392 
L 334.086069 224.36791 
L 280.11783 189.553022 
L 280.414113 253.775755 
L 301.558715 193.132923 
L 356.612338 226.204753 
L 315.744593 176.662097 
L 361.366428 221.864924 
L 333.436961 164.032474 
L 269.507154 157.898386 
L 331.821259 142.354911 
L 310.822666 203.048455 
L 310.37182 138.826621 
L 247.592669 152.370086 
L 302.257839 118.660051 
L 252.715183 159.527795 
L 285.787013 104.474172 
L 350.009746 104.177889 
L 289.366914 83.033287 
L 317.435483 140.798352 
L 271.704993 95.705453 
L 236.890105 149.673692 
L 251.707623 87.182986 
L 209.242149 134.784692 
L 238.670112 78.187573 
L 297.780621 102.170624 
L 246.40146 64.362943 
L 301.455446 96.048756 
L 241.877489 74.016978 
L 246.582183 137.138934 
z
" style="fill:#00ccff;fill-opacity:0.65;"/>
    <path clip-path="url(#p082a21769b)" d="M 178.995261 139.345306 
L 150.667902 174.249932 
L 194.205111 163.056918 
L 171.955077 202.117232 
L 213.08137 183.967847 
L 185.159912 219.19801 
L 228.564652 207.501824 
L 206.768212 246.817055 
L 247.68168 228.192869 
L 292.073652 235.272769 
L 260.611613 203.164946 
L 305.563854 202.903885 
L 269.282879 176.362162 
L 313.753824 182.927773 
L 281.92226 151.186258 
L 326.868469 150.404914 
L 290.282717 124.284904 
L 285.955001 169.0291 
L 262.805232 130.495214 
L 251.232057 173.932914 
L 234.682569 132.13714 
L 229.837251 176.828248 
L 207.135044 138.028995 
L 195.059874 181.329832 
L 178.995261 139.345306 
L 144.111783 163.979776 
L 180.277638 141.269755 
L 147.652265 168.825139 
L 178.738161 139.544066 
L 203.735426 174.168397 
L 176.904956 140.944407 
L 140.972672 163.993227 
z
" style="fill:#ff8900;fill-opacity:0.65;"/>
   </g>
  </g>
 </g>
 <defs>
  <clipPath id="p082a21769b">
   <rect height="324" width="439.2" x="10.8" y="10.8"/>
  </clipPath>
 </defs>
</svg>
