<?xml version="1.0" encoding="utf-8" standalone="no"?>
<!DOCTYPE svg PUBLIC "-//W3C//DTD SVG 1.1//EN"
  "http://www.w3.org/Graphics/SVG/1.1/DTD/svg11.dtd">
<!-- Created with matplotlib (https://matplotlib.org/) -->
<svg height="345.6pt" version="1.1" viewBox="0 0 460.8 345.6" width="460.8pt" xmlns="http://www.w3.org/2000/svg" xmlns:xlink="http://www.w3.org/1999/xlink">
 <metadata>
  <rdf:RDF xmlns:cc="http://creativecommons.org/ns#" xmlns:dc="http://purl.org/dc/elements/1.1/" xmlns:rdf="http://www.w3.org/1999/02/22-rdf-syntax-ns#">
   <cc:Work>
    <dc:type rdf:resource="http://purl.org/dc/dcmitype/StillImage"/>
    <dc:date>2021-11-09T11:36:33.590808</dc:date>
    <dc:format>image/svg+xml</dc:format>
    <dc:creator>
     <cc:Agent>
      <dc:title>Matplotlib v3.3.2, https://matplotlib.org/</dc:title>
     </cc:Agent>
    </dc:creator>
   </cc:Work>
  </rdf:RDF>
 </metadata>
 <defs>
  <style type="text/css">*{stroke-linecap:butt;stroke-linejoin:round;}</style>
 </defs>
 <g id="figure_1">
  <g id="patch_1">
   <path d="M 0 345.6 
L 460.8 345.6 
L 460.8 0 
L 0 0 
z
" style="fill:none;"/>
  </g>
  <g id="axes_1">
   <g id="PatchCollection_1">
    <path clip-path="url(#pfb38a930d8)" d="M 266.465279 80.612686 
L 249.336365 72.594857 
L 230.425603 72.856279 
L 236.352013 54.896242 
L 249.522386 41.323233 
L 239.985752 57.655346 
L 238.532901 76.512029 
L 226.20886 62.166183 
L 208.859572 54.637073 
L 192.882852 64.757829 
L 182.924816 80.836474 
L 178.574227 62.431103 
L 166.627336 47.769689 
L 181.737727 59.143402 
L 190.369473 75.971303 
L 171.645651 78.636589 
L 155.96221 89.20612 
L 140.454109 100.03128 
L 131.225126 116.539192 
L 126.055742 98.34681 
L 113.465099 84.234369 
L 129.06904 94.920917 
L 138.444748 111.34594 
L 119.85886 114.84595 
L 104.663816 126.106319 
L 97.610111 143.654268 
L 98.921872 162.521292 
L 116.326993 155.122166 
L 135.216256 156.060805 
L 144.161752 172.724039 
L 144.938224 191.620662 
L 126.823411 186.185698 
L 108.152808 189.201302 
L 125.14801 197.498795 
L 136.818127 212.381457 
L 139.112856 193.608618 
L 149.370373 177.719356 
L 135.606149 190.689762 
L 128.882437 208.366781 
L 147.78597 208.95137 
L 164.539161 217.727238 
L 158.277315 235.573094 
L 160.431559 254.362573 
L 177.488351 246.192437 
L 196.400692 246.285348 
L 206.082472 262.531837 
L 207.703285 281.374827 
L 189.363528 276.755454 
L 170.846474 280.60305 
L 186.529915 270.033519 
L 205.253737 267.368233 
L 196.621991 250.540332 
L 181.5116 239.166618 
L 193.458491 253.828033 
L 197.80908 272.233403 
L 207.767116 256.154759 
L 223.743836 246.034003 
L 241.093124 253.563113 
L 253.417165 267.908959 
L 254.870016 249.052275 
L 264.40665 232.720163 
L 251.236277 246.293172 
L 245.309867 264.253209 
L 264.220629 263.991787 
L 281.349543 272.009616 
L 300.020146 268.994013 
L 318.134959 274.428977 
L 317.358488 255.532353 
L 308.412991 238.869119 
L 289.523728 237.93048 
L 272.118608 245.329606 
L 270.806846 226.462583 
L 277.860552 208.914633 
L 293.055596 197.654264 
L 311.641483 194.154254 
L 302.265776 177.729231 
L 286.661834 167.042683 
L 299.252477 181.155124 
L 304.421862 199.347506 
L 313.650844 182.839594 
L 329.158946 172.014434 
L 347.675999 168.166838 
L 366.015756 172.786211 
L 364.394943 153.943222 
L 354.713164 137.696732 
L 335.800822 137.603821 
L 318.74403 145.773957 
L 316.589786 126.984478 
L 322.851633 109.138622 
L 306.098441 100.362755 
L 287.194909 99.778165 
L 293.918621 82.101147 
L 307.682844 69.13074 
L 297.425328 85.020002 
L 295.130598 103.792842 
L 283.460481 88.910179 
L 266.465279 80.612686 
L 283.433581 85.279012 
L 296.257484 97.330793 
L 299.380981 80.011969 
L 294.053298 63.239561 
L 278.010403 70.473051 
L 267.203858 84.362488 
L 269.874507 66.968077 
L 264.111107 50.340357 
L 280.657431 45.70231 
L 297.409643 49.530585 
L 289.931075 34.059214 
L 275.971067 24.03871 
L 260.510198 26.094586 
L 248.402837 35.927029 
L 249.293762 31.787403 
z
" style="fill:#ff9400;fill-opacity:0.65;"/>
    <path clip-path="url(#pfb38a930d8)" d="M 268.786448 94.366383 
L 266.440247 110.34431 
L 277.827333 121.795646 
L 277.365755 137.938315 
L 264.164544 147.240297 
L 259.405137 162.672305 
L 244.197965 168.107444 
L 229.730743 175.283678 
L 215.317339 167.999956 
L 206.397424 181.462271 
L 190.274607 182.386188 
L 174.370464 185.189233 
L 162.597562 174.134931 
L 146.522832 172.585131 
L 138.132841 158.786331 
L 128.18673 146.063371 
L 132.414391 130.477296 
L 135.217436 146.38144 
L 124.163134 158.154342 
L 125.087051 174.277158 
L 138.549367 183.197074 
L 136.999567 199.271804 
L 123.200766 207.661795 
L 110.477806 217.607905 
L 94.891732 213.380244 
L 102.067966 227.847466 
L 94.784244 242.26087 
L 100.219382 257.468043 
L 115.65139 262.227449 
L 124.953372 275.42866 
L 141.096042 275.890239 
L 157.073969 278.23644 
L 168.525305 266.849354 
L 164.297644 282.435428 
L 174.243755 295.158388 
L 182.633745 308.957188 
L 198.708475 310.506988 
L 210.481378 321.56129 
L 226.385521 318.758245 
L 242.508337 317.834328 
L 251.428253 304.372013 
L 265.841657 311.655735 
L 280.308878 304.479501 
L 295.516051 299.044363 
L 300.275458 283.612354 
L 313.476668 274.310373 
L 313.938247 258.167703 
L 302.551161 246.716367 
L 304.897362 230.73844 
L 293.446026 242.125526 
L 277.468099 239.779325 
L 261.325429 239.317746 
L 252.023448 226.116535 
L 236.591439 221.357129 
L 231.156301 206.149956 
L 238.440023 191.736552 
L 231.263789 177.269331 
L 246.849864 181.496991 
L 259.572824 171.550881 
L 273.371624 163.16089 
L 274.921424 147.08616 
L 261.459108 138.166245 
L 260.535191 122.043428 
L 271.589493 110.270526 
L 268.786448 94.366383 
L 261.789918 105.946875 
L 269.250469 117.234011 
L 263.255981 129.363535 
L 249.727718 129.150634 
L 248.830773 142.650809 
L 260.641543 149.251185 
L 271.853296 156.824547 
L 283.503368 149.944499 
L 278.674274 160.341153 
L 287.864168 167.193628 
L 297.224484 173.811411 
L 305.616018 166.001627 
L 310.662334 173.700342 
L 316.967855 166.993933 
L 310.101211 169.257229 
z
" style="fill:#26ffd1;fill-opacity:0.65;"/>
    <path clip-path="url(#pfb38a930d8)" d="M 230.528074 92.736899 
L 195.458878 85.570062 
L 201.825964 120.79324 
L 191.879243 86.409017 
L 163.646511 108.411855 
L 194.158294 127.126639 
L 165.45211 148.508104 
L 133.181508 133.021971 
L 130.784908 168.735671 
L 166.498608 171.132271 
L 151.012475 203.402873 
L 169.727259 172.891089 
L 191.108724 201.597274 
L 156.7245 211.543995 
L 178.727339 239.776727 
L 213.950517 233.409641 
L 206.783679 268.478837 
L 209.180279 232.765137 
L 241.450881 248.25127 
L 270.157066 226.869805 
L 239.645282 208.155021 
L 267.878015 186.152183 
L 277.824736 220.536406 
L 271.457649 185.313228 
L 306.526845 192.480066 
L 313.693683 157.410869 
L 278.470505 163.777956 
L 256.467667 135.545223 
L 290.85189 125.598502 
L 269.470425 96.892318 
L 250.755641 127.404101 
L 266.241774 95.133499 
L 230.528074 92.736899 
L 216.332832 63.857639 
L 205.504879 94.160642 
L 181.42813 72.810544 
L 213.518094 70.412469 
L 244.744473 73.758708 
L 218.256766 90.631332 
L 197.538624 69.436324 
z
" style="fill:#800000;fill-opacity:0.65;"/>
    <path clip-path="url(#pfb38a930d8)" d="M 210.257114 257.737634 
L 213.664289 241.570509 
L 228.0267 233.403141 
L 226.802892 216.926278 
L 238.327032 205.086558 
L 252.369614 196.380777 
L 268.196912 201.122228 
L 279.264094 188.854293 
L 295.785642 189.006631 
L 295.93798 172.485083 
L 283.670045 161.417901 
L 288.411496 145.590602 
L 279.705714 131.54802 
L 267.865995 120.02388 
L 251.389131 121.247689 
L 243.221763 106.885278 
L 227.054639 103.478103 
L 210.533091 103.325765 
L 199.46591 115.5937 
L 183.638611 110.852249 
L 169.596029 119.55803 
L 158.071889 131.39775 
L 159.295697 147.874613 
L 144.933286 156.041981 
L 141.526111 172.209106 
L 157.693235 175.616281 
L 165.860603 189.978691 
L 182.337467 188.754883 
L 194.177186 200.279023 
L 202.882968 214.321605 
L 198.141517 230.148904 
L 210.409452 241.216086 
L 210.257114 257.737634 
L 208.465134 248.700879 
L 199.610937 251.245937 
L 204.002041 243.147027 
L 195.562768 239.45206 
L 200.620938 234.462455 
L 199.297395 241.443105 
L 193.819777 237.443227 
z
" style="fill:#ffc400;fill-opacity:0.65;"/>
    <path clip-path="url(#pfb38a930d8)" d="M 253.775902 237.080011 
L 277.897913 256.189237 
L 288.889917 227.445373 
L 262.518419 243.306582 
L 255.299688 213.391305 
L 278.228133 233.917393 
L 290.929819 205.887033 
L 263.651693 220.132655 
L 258.246129 189.837213 
L 276.41261 214.676957 
L 294.657898 189.895041 
L 265.01626 198.165905 
L 266.019313 167.40834 
L 282.658198 193.296201 
L 302.361624 169.657062 
L 272.276016 176.129318 
L 275.12802 145.487843 
L 281.600275 175.573451 
L 250.958801 172.721447 
L 276.846662 156.082561 
L 253.207523 136.379136 
L 261.478386 166.020774 
L 230.720821 165.017722 
L 255.560565 146.85124 
L 230.778649 128.605952 
L 245.024271 155.884078 
L 214.728829 161.289642 
L 186.69847 148.587956 
L 207.224558 125.659511 
L 223.085767 152.031009 
L 193.17049 159.24974 
L 164.426626 148.257736 
L 183.535851 124.135725 
L 180.683847 154.7772 
L 210.769455 148.304944 
L 191.06603 171.944084 
L 174.427144 146.056222 
L 173.424092 176.813787 
L 203.06573 168.542923 
L 184.820441 193.324839 
L 166.65396 168.485095 
L 172.059524 198.780537 
L 199.33765 184.534915 
L 186.635965 212.565275 
L 163.707519 192.039187 
L 170.92625 221.954464 
L 197.297749 206.093255 
L 186.305744 234.837119 
L 162.183733 215.727893 
L 143.074508 239.849904 
L 171.818372 250.841909 
L 201.73365 243.623178 
L 185.87244 217.251679 
L 165.346352 240.180125 
L 193.376712 252.88181 
L 223.672153 247.476246 
L 209.426532 220.19812 
L 234.208447 238.443409 
L 209.368703 256.60989 
L 240.126268 257.612942 
L 231.855405 227.971304 
L 255.494544 247.674729 
L 229.606683 264.313615 
L 260.248158 267.165619 
L 253.775902 237.080011 
L 267.368731 264.05626 
L 237.343931 267.372039 
L 266.92014 261.229495 
L 250.835203 235.660808 
L 274.646129 254.249049 
L 248.912616 270.06895 
L 223.449317 253.817693 
L 247.57007 235.633297 
L 270.445826 255.344925 
L 243.971692 269.869688 
L 270.138672 254.798602 
L 246.858742 235.56599 
L 262.442126 261.430536 
L 281.210865 237.775704 
L 287.775868 261.702249 
z
" style="fill:#83ff73;fill-opacity:0.65;"/>
    <path clip-path="url(#pfb38a930d8)" d="M 233.334351 234.046957 
L 234.575422 228.040312 
L 235.661144 222.003654 
L 241.23306 219.439715 
L 246.736988 216.732906 
L 250.717923 212.066837 
L 254.577176 207.299636 
L 260.695103 207.736675 
L 266.822268 208.015761 
L 268.949229 202.262843 
L 270.92709 196.456975 
L 267.42625 191.420691 
L 264.05648 186.295783 
L 263.414464 180.195959 
L 262.930001 174.081604 
L 267.565062 170.064609 
L 272.094965 165.929394 
L 272.532004 159.811466 
L 272.811091 153.684302 
L 268.04389 149.825049 
L 263.377821 145.844114 
L 260.671012 140.340186 
L 258.107073 134.76827 
L 252.070414 133.682548 
L 246.06377 132.441477 
L 241.928554 127.911573 
L 237.911559 123.276513 
L 231.811735 123.918529 
L 225.697381 124.402992 
L 219.891513 122.42513 
L 214.138594 120.298169 
L 209.102311 123.79901 
L 203.977402 127.168779 
L 197.850237 126.889693 
L 191.73231 126.452654 
L 187.873057 131.219855 
L 183.892123 135.885924 
L 178.388195 138.592733 
L 172.816278 141.156672 
L 171.730556 147.19333 
L 170.489485 153.199975 
L 165.959582 157.335191 
L 161.324521 161.352186 
L 161.808984 167.46654 
L 162.451 173.566364 
L 165.82077 178.691273 
L 169.32161 183.727556 
L 167.343749 189.533424 
L 165.216788 195.286343 
L 171.223432 196.527414 
L 177.260091 197.613136 
L 179.82403 203.185052 
L 182.530839 208.68898 
L 187.196908 212.669914 
L 191.964108 216.529167 
L 191.685022 222.656332 
L 191.247983 228.774259 
L 196.372892 225.40449 
L 201.409176 221.903649 
L 207.162094 224.03061 
L 212.967962 226.008472 
L 219.082317 225.524009 
L 225.182141 224.881993 
L 229.199136 229.517053 
L 233.334351 234.046957 
L 234.753994 231.309389 
L 236.031356 228.502609 
L 233.028179 229.203035 
L 229.99303 229.748504 
L 227.757342 228.117923 
L 225.618505 226.362226 
L 225.696179 226.377233 
z
" style="fill:#000080;fill-opacity:0.65;"/>
   </g>
  </g>
 </g>
 <defs>
  <clipPath id="pfb38a930d8">
   <rect height="324" width="439.2" x="10.8" y="10.8"/>
  </clipPath>
 </defs>
</svg>
