<?xml version="1.0" encoding="utf-8" standalone="no"?>
<!DOCTYPE svg PUBLIC "-//W3C//DTD SVG 1.1//EN"
  "http://www.w3.org/Graphics/SVG/1.1/DTD/svg11.dtd">
<!-- Created with matplotlib (https://matplotlib.org/) -->
<svg height="345.6pt" version="1.1" viewBox="0 0 460.8 345.6" width="460.8pt" xmlns="http://www.w3.org/2000/svg" xmlns:xlink="http://www.w3.org/1999/xlink">
 <metadata>
  <rdf:RDF xmlns:cc="http://creativecommons.org/ns#" xmlns:dc="http://purl.org/dc/elements/1.1/" xmlns:rdf="http://www.w3.org/1999/02/22-rdf-syntax-ns#">
   <cc:Work>
    <dc:type rdf:resource="http://purl.org/dc/dcmitype/StillImage"/>
    <dc:date>2021-11-09T11:36:33.402132</dc:date>
    <dc:format>image/svg+xml</dc:format>
    <dc:creator>
     <cc:Agent>
      <dc:title>Matplotlib v3.3.2, https://matplotlib.org/</dc:title>
     </cc:Agent>
    </dc:creator>
   </cc:Work>
  </rdf:RDF>
 </metadata>
 <defs>
  <style type="text/css">*{stroke-linecap:butt;stroke-linejoin:round;}</style>
 </defs>
 <g id="figure_1">
  <g id="patch_1">
   <path d="M 0 345.6 
L 460.8 345.6 
L 460.8 0 
L 0 0 
z
" style="fill:none;"/>
  </g>
  <g id="axes_1">
   <g id="PatchCollection_1">
    <path clip-path="url(#pf6b047e661)" d="M 221.599166 289.30411 
L 241.911044 250.546657 
L 249.847294 293.578371 
L 221.799847 259.991869 
L 264.596638 269.110374 
L 280.705207 228.425899 
L 293.138089 270.379873 
L 261.703009 239.940618 
L 305.223083 244.492058 
L 307.094225 200.774655 
L 332.601623 236.32863 
L 292.920787 217.885645 
L 335.525703 207.908992 
L 332.773096 164.238228 
L 361.889928 196.902009 
L 403.204172 182.485155 
L 361.798685 168.332485 
L 347.381831 127.01824 
L 333.229161 168.423728 
L 365.892941 139.306896 
L 322.222177 142.059503 
L 312.245525 99.454587 
L 293.80254 139.135423 
L 329.356514 113.628024 
L 285.639111 111.756883 
L 290.190551 68.236808 
L 259.751297 99.671889 
L 219.066822 83.56332 
L 261.020796 71.130438 
L 270.139301 28.333647 
L 236.552798 56.381094 
L 197.795346 36.069216 
L 240.82706 28.132966 
L 282.232548 42.285636 
L 240.918303 56.702491 
L 211.801471 24.03871 
L 214.554078 67.709474 
L 171.949162 77.686126 
L 211.629998 96.129111 
L 186.1226 60.575137 
L 184.251458 104.29254 
L 140.731384 99.7411 
L 172.166464 130.180355 
L 159.733582 88.226381 
L 143.625013 128.910856 
L 100.828222 119.792351 
L 128.875669 153.378853 
L 120.939419 110.347139 
L 100.627542 149.104591 
L 57.595828 157.040841 
L 96.35328 177.352719 
L 129.939782 149.305271 
L 120.821277 192.102063 
L 78.867303 204.534945 
L 119.551778 220.643513 
L 149.991033 189.208433 
L 145.439593 232.728508 
L 189.156996 234.599649 
L 153.603022 260.107048 
L 172.046006 220.426212 
L 182.022659 263.031128 
L 225.693423 260.278521 
L 193.029642 289.395353 
L 207.182312 247.989865 
L 221.599166 289.30411 
L 186.149421 266.41126 
L 209.903515 301.289764 
L 211.985317 259.142011 
L 226.460948 298.780667 
L 184.462748 294.667492 
L 221.554071 314.792124 
L 204.099659 276.37194 
L 235.123324 304.977871 
L 206.074971 274.477644 
L 221.721639 313.583301 
L 212.412841 272.505121 
L 236.308837 307.190161 
L 277.120434 296.793508 
L 243.058229 321.56129 
L 249.246043 280.666707 
z
" style="fill:#02e8f4;fill-opacity:0.65;"/>
    <path clip-path="url(#pf6b047e661)" d="M 166.301049 60.362604 
L 162.438897 77.629463 
L 160.399888 95.205101 
L 176.345819 102.872429 
L 191.404471 112.162081 
L 190.445423 129.829589 
L 191.335479 147.500707 
L 208.328274 152.430772 
L 224.713747 159.107364 
L 230.606973 175.790605 
L 234.726872 192.997785 
L 219.808806 202.51156 
L 205.965108 213.530301 
L 209.023703 230.957453 
L 210.246813 248.608646 
L 193.963002 255.529493 
L 178.490408 264.112001 
L 194.730862 257.090016 
L 211.615476 251.801308 
L 212.131224 234.115307 
L 210.798359 216.472062 
L 225.656969 206.865692 
L 241.437004 198.862498 
L 239.026365 181.333965 
L 234.799529 164.152741 
L 249.968497 173.261146 
L 264.104031 183.902917 
L 277.66709 172.540521 
L 292.341917 162.655679 
L 308.806276 169.135302 
L 324.50448 177.29784 
L 336.005977 163.852537 
L 348.847883 151.681008 
L 331.886077 146.645356 
L 314.491355 143.407419 
L 313.711217 125.731107 
L 311.090556 108.232742 
L 295.192619 100.46639 
L 278.570965 94.401635 
L 278.874592 76.710721 
L 281.022869 59.148104 
L 267.048034 70.000044 
L 254.282075 82.251204 
L 239.461088 72.58689 
L 223.712423 64.522141 
L 208.138023 72.918491 
L 193.524956 82.894408 
L 180.502494 70.916257 
L 166.301049 60.362604 
L 172.512838 70.932872 
L 177.064313 82.317114 
L 184.195127 72.34373 
L 192.74474 63.556181 
L 202.281056 71.261735 
L 210.550074 80.31382 
L 213.711813 68.468133 
L 218.619068 57.232666 
L 223.658231 66.288177 
L 227.00784 76.095092 
L 221.498067 67.317971 
L 214.516141 59.659762 
L 204.886496 63.299143 
L 196.063269 68.602521 
L 195.151697 68.448131 
z
" style="fill:#19ffde;fill-opacity:0.65;"/>
    <path clip-path="url(#pf6b047e661)" d="M 232.042497 53.970628 
L 200.250899 76.053778 
L 161.595928 78.094488 
L 176.91691 113.642185 
L 208.655744 135.801104 
L 173.355109 119.919151 
L 151.701548 87.833414 
L 149.048998 126.451224 
L 126.465203 157.889154 
L 157.903134 180.472949 
L 196.520943 183.125498 
L 180.638991 218.426133 
L 148.553254 240.079695 
L 184.10095 224.758712 
L 206.259869 193.019879 
L 208.30058 231.674849 
L 230.383729 263.466448 
L 252.967524 232.028518 
L 255.620073 193.410708 
L 277.273635 225.496445 
L 312.57427 241.378397 
L 280.835436 219.219479 
L 265.514454 183.671782 
L 304.169424 181.631071 
L 335.961023 159.547922 
L 313.877873 127.756323 
L 311.837163 89.101353 
L 289.678244 120.840187 
L 254.130547 136.161169 
L 286.216284 114.507607 
L 302.098237 79.206972 
L 263.480427 76.554423 
L 232.042497 53.970628 
L 265.747018 49.557455 
L 290.292344 26.041549 
L 285.346019 59.671962 
L 261.444391 83.841841 
L 229.157046 85.630888 
L 202.691198 67.050463 
L 206.122884 77.071683 
z
" style="fill:#ffea00;fill-opacity:0.65;"/>
    <path clip-path="url(#pf6b047e661)" d="M 196.540261 243.564592 
L 206.750711 225.426691 
L 226.646809 231.540776 
L 235.871799 212.882365 
L 256.06663 217.922756 
L 266.612333 199.977704 
L 286.391392 206.460418 
L 295.961476 187.976635 
L 316.059167 193.39139 
L 321.473922 173.2937 
L 302.99014 163.723615 
L 309.472854 143.944556 
L 291.527802 133.398853 
L 296.568192 113.204022 
L 277.909781 103.979032 
L 284.023867 84.082934 
L 265.885966 73.872484 
L 245.788275 68.457729 
L 236.21819 86.941512 
L 216.439132 80.458797 
L 205.893429 98.403849 
L 185.698597 93.363459 
L 176.473607 112.02187 
L 156.57751 105.907784 
L 146.367059 124.045685 
L 164.50496 134.256136 
L 158.390875 154.152233 
L 177.049286 163.377223 
L 172.008895 183.572055 
L 189.953947 194.117758 
L 183.471233 213.896816 
L 201.955016 223.466901 
L 196.540261 243.564592 
L 195.252857 230.562814 
L 195.623461 243.622917 
L 187.244476 233.598135 
L 196.307177 243.009356 
L 208.470854 238.242184 
L 196.65054 243.806459 
L 191.807716 231.680466 
z
" style="fill:#000cff;fill-opacity:0.65;"/>
    <path clip-path="url(#pf6b047e661)" d="M 280.985791 97.932951 
L 308.752808 122.300454 
L 274.740533 136.720842 
L 248.354984 162.577856 
L 236.531749 127.577949 
L 214.36078 157.128423 
L 197.379656 124.319524 
L 231.372057 109.852351 
L 203.571538 85.523077 
L 212.516424 121.366785 
L 176.346652 113.848142 
L 171.567797 150.480708 
L 206.637822 138.867108 
L 220.901342 172.945465 
L 184.010479 170.984191 
L 148.956466 182.646035 
L 153.684912 146.006928 
L 181.311371 170.533671 
L 147.216751 184.758271 
L 163.96367 217.687332 
L 186.344632 188.295583 
L 197.918181 223.378846 
L 224.487301 197.710494 
L 258.601461 183.532821 
L 231.008776 158.968088 
L 211.085998 190.078622 
L 247.762944 194.504007 
L 240.593434 230.744599 
L 211.068294 208.539904 
L 186.669103 236.279079 
L 222.254709 246.201128 
L 251.749268 268.446428 
L 258.968636 232.215735 
L 251.491296 268.394068 
L 222.15599 245.939175 
L 186.641986 235.763819 
L 211.238208 208.1992 
L 240.604383 230.613707 
L 248.031936 194.42512 
L 211.387454 189.738512 
L 231.531398 158.770724 
L 227.064138 195.442593 
L 262.034166 183.531275 
L 298.938068 185.229639 
L 284.432091 151.25378 
L 249.445706 163.11697 
L 253.963421 126.451283 
L 290.185848 133.712015 
L 280.985791 97.932951 
L 291.733156 132.239598 
L 256.789024 123.792146 
L 220.850028 122.875387 
L 240.137559 92.536583 
L 254.75013 125.38357 
L 275.387456 95.946305 
L 240.860249 85.930129 
L 267.221978 61.486089 
L 259.345453 96.223624 
L 292.790886 83.970503 
L 289.414581 119.429445 
L 261.475062 97.336024 
L 243.43561 126.677527 
L 277.456825 121.301415 
L 308.346471 126.274973 
z
" style="fill:#000080;fill-opacity:0.65;"/>
    <path clip-path="url(#pf6b047e661)" d="M 277.084032 205.431638 
L 285.71794 180.534093 
L 295.525891 204.99296 
L 271.541401 194.076169 
L 296.807914 186.590487 
L 308.737459 163.093295 
L 284.322712 173.010563 
L 272.173144 149.626379 
L 296.6799 159.31405 
L 288.500339 134.263563 
L 278.249073 158.539964 
L 302.428185 148.061288 
L 277.302027 140.117215 
L 265.8019 116.406897 
L 290.032199 126.76666 
L 302.605145 103.607361 
L 277.926213 112.847619 
L 254.429021 100.918073 
L 264.346289 125.332821 
L 274.033959 100.826064 
L 250.649775 112.975632 
L 243.164093 87.70912 
L 232.247302 111.69361 
L 256.706169 101.885659 
L 231.808625 93.251751 
L 206.758139 101.431312 
L 231.034539 111.682578 
L 220.555863 87.503466 
L 212.61179 112.629624 
L 189.452491 100.056678 
L 198.692749 124.73561 
L 209.052512 100.505311 
L 185.342194 112.005438 
L 160.835438 102.317768 
L 172.985006 125.701952 
L 197.399753 115.784684 
L 185.470208 139.281876 
L 160.203695 146.767558 
L 184.188185 157.684349 
L 174.380234 133.225482 
L 165.746326 158.123026 
L 190.425259 148.882768 
L 177.852312 172.042067 
L 153.622013 161.682304 
L 165.12214 185.392622 
L 190.248298 193.336695 
L 166.069186 203.815371 
L 176.320452 179.53897 
L 184.500014 204.589457 
L 209.397558 213.223365 
L 184.938691 223.031316 
L 195.855482 199.046826 
L 203.341164 224.313338 
L 226.725348 212.16377 
L 217.037677 236.670527 
L 207.120409 212.25578 
L 230.617601 224.185325 
L 254.327919 212.685198 
L 243.968156 236.915497 
L 234.727898 212.236564 
L 257.887197 224.809511 
L 265.83127 199.683353 
L 276.309946 223.862465 
L 252.033546 213.611199 
L 277.084032 205.431638 
L 301.821146 212.010055 
L 277.18938 218.972562 
L 265.103798 196.408451 
L 287.009979 209.649281 
L 309.149862 197.08917 
L 295.589897 218.631179 
L 295.002876 193.952973 
z
" style="fill:#800000;fill-opacity:0.65;"/>
   </g>
  </g>
 </g>
 <defs>
  <clipPath id="pf6b047e661">
   <rect height="324" width="439.2" x="10.8" y="10.8"/>
  </clipPath>
 </defs>
</svg>
