<svg id="Layer_1" data-name="Layer 1" xmlns="http://www.w3.org/2000/svg" xmlns:xlink="http://www.w3.org/1999/xlink" viewBox="0 0 608.84 463.18">
  <defs>
    <style>
      .cls-1, .cls-12, .cls-13, .cls-14, .cls-15, .cls-16, .cls-17, .cls-18, .cls-19, .cls-4, .cls-9 {
        fill: none;
      }

      .cls-2 {
        clip-path: url(#clip-path);
      }

      .cls-3 {
        fill: #fff;
      }

      .cls-4, .cls-9 {
        stroke: #272626;
        stroke-linecap: square;
      }

      .cls-19, .cls-4, .cls-9 {
        stroke-linejoin: round;
      }

      .cls-4 {
        stroke-width: 0.54px;
      }

      .cls-10, .cls-11, .cls-5, .cls-6 {
        isolation: isolate;
        fill: #272626;
        font-family: HelveticaNeue, Helvetica Neue;
      }

      .cls-5 {
        font-size: 16.31px;
      }

      .cls-6 {
        font-size: 27.18px;
      }

      .cls-7 {
        fill: #1372ba;
      }

      .cls-8 {
        clip-path: url(#clip-path-2);
      }

      .cls-9 {
        stroke-width: 0.19px;
      }

      .cls-10 {
        font-size: 9.53px;
      }

      .cls-11 {
        font-size: 10.48px;
      }

      .cls-12 {
        stroke: #1372ba;
      }

      .cls-12, .cls-13, .cls-14, .cls-15, .cls-16, .cls-17, .cls-18 {
        stroke-linejoin: bevel;
        stroke-width: 0.76px;
        stroke-dasharray: 0.76 0.76;
      }

      .cls-13 {
        stroke: #d95527;
      }

      .cls-14 {
        stroke: #ecb121;
      }

      .cls-15 {
        stroke: #7f2f8d;
      }

      .cls-16 {
        stroke: #76ac42;
      }

      .cls-17 {
        stroke: #50beed;
      }

      .cls-18 {
        stroke: #a21c31;
      }

      .cls-19 {
        stroke: #010101;
        stroke-width: 1.14px;
      }
    </style>
    <clipPath id="clip-path" transform="translate(-1.58 -330.91)">
      <rect class="cls-1" x="1.58" y="330.91" width="608.84" height="456.63"/>
    </clipPath>
    <clipPath id="clip-path-2" transform="translate(-1.58 -330.91)">
      <rect class="cls-1" x="361.36" y="561.62" width="213.4" height="160.05"/>
    </clipPath>
  </defs>
  <g>
    <g class="cls-2">
      <rect class="cls-3" width="608.84" height="456.63"/>
    </g>
    <g>
      <rect class="cls-3" width="608.84" height="456.63"/>
      <path class="cls-3" d="M81,727.74H552.8V364.61H81Z" transform="translate(-1.58 -330.91)"/>
    </g>
    <g>
      <line class="cls-4" x1="79.37" y1="396.83" x2="551.22" y2="396.83"/>
      <line class="cls-4" x1="79.37" y1="396.83" x2="79.37" y2="392.12"/>
      <line class="cls-4" x1="158.01" y1="396.83" x2="158.01" y2="392.12"/>
      <line class="cls-4" x1="236.65" y1="396.83" x2="236.65" y2="392.12"/>
      <line class="cls-4" x1="315.29" y1="396.83" x2="315.29" y2="392.12"/>
      <line class="cls-4" x1="393.93" y1="396.83" x2="393.93" y2="392.12"/>
      <line class="cls-4" x1="472.58" y1="396.83" x2="472.58" y2="392.12"/>
      <line class="cls-4" x1="551.22" y1="396.83" x2="551.22" y2="392.12"/>
    </g>
    <text class="cls-5" transform="translate(67.95 418.58)">0.7</text>
    <text class="cls-5" transform="translate(141.7 418.58)">0.75</text>
    <text class="cls-5" transform="translate(225.24 418.58)">0.8</text>
    <text class="cls-5" transform="translate(298.99 418.58)">0.85</text>
    <text class="cls-5" transform="translate(382.52 418.58)">0.9</text>
    <text class="cls-5" transform="translate(456.27 418.58)">0.95</text>
    <text class="cls-5" transform="translate(546.33 418.58)">1</text>
    <text class="cls-6" transform="translate(194.07 450.11)">overall performance</text>
    <g>
      <line class="cls-4" x1="79.37" y1="396.83" x2="79.37" y2="33.7"/>
      <line class="cls-4" x1="79.37" y1="396.83" x2="84.09" y2="396.83"/>
      <line class="cls-4" x1="79.37" y1="351.44" x2="84.09" y2="351.44"/>
      <line class="cls-4" x1="79.37" y1="306.05" x2="84.09" y2="306.05"/>
      <line class="cls-4" x1="79.37" y1="260.66" x2="84.09" y2="260.66"/>
      <line class="cls-4" x1="79.37" y1="215.27" x2="84.09" y2="215.27"/>
      <line class="cls-4" x1="79.37" y1="169.88" x2="84.09" y2="169.88"/>
      <line class="cls-4" x1="79.37" y1="124.49" x2="84.09" y2="124.49"/>
      <line class="cls-4" x1="79.37" y1="79.09" x2="84.09" y2="79.09"/>
      <line class="cls-4" x1="79.37" y1="33.7" x2="84.09" y2="33.7"/>
    </g>
    <text class="cls-5" transform="translate(51.1 402.81)">0.6</text>
    <text class="cls-5" transform="translate(41.31 357.42)">0.65</text>
    <text class="cls-5" transform="translate(51.1 312.03)">0.7</text>
    <text class="cls-5" transform="translate(41.31 266.64)">0.75</text>
    <text class="cls-5" transform="translate(51.1 221.25)">0.8</text>
    <text class="cls-5" transform="translate(41.31 175.86)">0.85</text>
    <text class="cls-5" transform="translate(51.1 130.47)">0.9</text>
    <text class="cls-5" transform="translate(41.31 85.08)">0.95</text>
    <text class="cls-5" transform="translate(64.15 39.68)">1</text>
    <text class="cls-6" transform="translate(31.53 401.73) rotate(-90)">performance (switch cue trials)</text>
    <g>
      <circle class="cls-7" cx="158.01" cy="341.72" r="3.26"/>
      <circle class="cls-7" cx="493.68" cy="66.72" r="3.26"/>
      <circle class="cls-7" cx="148.42" cy="293.08" r="3.26"/>
      <circle class="cls-7" cx="445.72" cy="98.55" r="3.26"/>
      <circle class="cls-7" cx="522.45" cy="55.06" r="3.26"/>
      <circle class="cls-7" cx="455.31" cy="49.91" r="3.26"/>
      <circle class="cls-7" cx="215.55" cy="179.6" r="3.26"/>
      <circle class="cls-7" cx="436.13" cy="130.97" r="3.26"/>
      <circle class="cls-7" cx="445.72" cy="76.42" r="3.26"/>
      <circle class="cls-7" cx="229.94" cy="179.6" r="3.26"/>
      <circle class="cls-7" cx="345.02" cy="119.15" r="3.26"/>
      <circle class="cls-7" cx="134.03" cy="363.82" r="3.26"/>
      <circle class="cls-7" cx="349.82" cy="260.66" r="3.26"/>
    </g>
  </g>
  <g>
    <g class="cls-8">
      <rect class="cls-3" x="359.78" y="230.71" width="213.4" height="160.05"/>
    </g>
    <g>
      <rect class="cls-3" x="359.78" y="230.71" width="213.4" height="160.05"/>
      <path class="cls-3" d="M391.08,694.61H554.56V573.43H391.08Z" transform="translate(-1.58 -330.91)"/>
    </g>
    <g>
      <line class="cls-9" x1="389.5" y1="363.71" x2="552.98" y2="363.71"/>
      <line class="cls-9" x1="389.5" y1="363.71" x2="389.5" y2="362.07"/>
      <line class="cls-9" x1="440.59" y1="363.71" x2="440.59" y2="362.07"/>
      <line class="cls-9" x1="491.67" y1="363.71" x2="491.67" y2="362.07"/>
      <line class="cls-9" x1="542.76" y1="363.71" x2="542.76" y2="362.07"/>
    </g>
    <text class="cls-10" transform="translate(386.83 375.52)">0</text>
    <text class="cls-10" transform="translate(435.25 375.52)">10</text>
    <text class="cls-10" transform="translate(486.34 375.52)">20</text>
    <text class="cls-10" transform="translate(537.43 375.52)">30</text>
    <text class="cls-11" transform="translate(443.23 388.48)">trial number</text>
    <g>
      <line class="cls-9" x1="389.5" y1="363.71" x2="389.5" y2="242.53"/>
      <line class="cls-9" x1="389.5" y1="363.71" x2="391.13" y2="363.71"/>
      <line class="cls-9" x1="389.5" y1="339.47" x2="391.13" y2="339.47"/>
      <line class="cls-9" x1="389.5" y1="315.23" x2="391.13" y2="315.23"/>
      <line class="cls-9" x1="389.5" y1="291" x2="391.13" y2="291"/>
      <line class="cls-9" x1="389.5" y1="266.76" x2="391.13" y2="266.76"/>
      <line class="cls-9" x1="389.5" y1="242.53" x2="391.13" y2="242.53"/>
    </g>
    <text class="cls-10" transform="translate(381.5 367.14)">0</text>
    <text class="cls-10" transform="translate(373.49 342.9)">0.2</text>
    <text class="cls-10" transform="translate(373.49 318.66)">0.4</text>
    <text class="cls-10" transform="translate(373.49 294.43)">0.6</text>
    <text class="cls-10" transform="translate(373.49 270.19)">0.8</text>
    <text class="cls-10" transform="translate(381.5 245.96)">1</text>
    <text class="cls-11" transform="translate(370.07 370.76) rotate(-90)">performance (6-trial average)</text>
    <g>
      <path class="cls-12" d="M396.19,694.61h10.22l5.1-5.11L416.62,675l5.11-20.5,5.11-19.59L432,620.44l5.11-12,5.11-3.36,5.1,3.36,5.11,10.22,5.11,10.27,5.11,4.21,5.11.9H483l5.1,5.12,5.11,9.37,5.11,6,5.11-6,5.11-9.37,5.11-4.21,5.11-.91h5.11l5.1-5.11,5.11-14.48,5.11-10.28,5.11,4.27,5.11,10.77,5.11-2.94" transform="translate(-1.58 -330.91)"/>
      <path class="cls-13" d="M396.19,634l5.11,5.68,5.11,9,5.1,5.79,5.11-11.12,5.11-23.86,5.11-24.71L432,584.56l5.11,4.26,5.11,5.11,5.1-6,5.11-9.37,5.11.9,5.11,8.47,5.11,6,5.11-.9h5.11l5.11,1.8,5.1-6.91,5.11-9.37,5.11-4.21,5.11-.91h35.76l5.11,5.12,5.11,10.7,5.11,14.48" transform="translate(-1.58 -330.91)"/>
      <path class="cls-14" d="M396.19,694.61l5.11-5.67,5.11-14.22,5.1-20.2L416.62,640l5.11-5.11,5.11-.91H432l5.11,5.12,5.11,4.26,5.1-3.36,5.11-12,5.11-3.36,5.11,10.28,5.11,12.68,5.11,6.91,5.11-6,5.11-4.26,5.1,0,5.11.85,5.11,2.46,5.11,17.13,5.11,14.54,5.11-6.06,5.11-13.59,5.11-5.11,5.1,6,5.11-2.65,5.11-12.73L544.34,634l5.11,5.59,5.11,18.49" transform="translate(-1.58 -330.91)"/>
      <path class="cls-15" d="M396.19,686.89l5.11-14,5.11-13.76,5.1-9.69,5.11-8.47,5.11-18,5.11-17.84L432,589.72l5.11-11.17,5.11-4.21,5.1,4.21,5.11,9.37,5.11,6,5.11-6,5.11-4.26,5.11,5.16,5.11,5.11,5.11-6,5.1-9.37,5.11-4.21,5.11-.91h56.2" transform="translate(-1.58 -330.91)"/>
      <path class="cls-16" d="M396.19,626.3l5.11-8.36,5.11-9.91,5.1-8.09,5.11-11.12,5.11-10.27,5.11-4.21,5.11-.91H483l5.1,5.12L493.25,593l5.11,15.39h5.11L508.58,593l5.11-13.58,5.11-5.11,5.11-.91h30.65" transform="translate(-1.58 -330.91)"/>
      <path class="cls-17" d="M396.19,665l5.11-20.57,5.11-19.92,5.1-15.19,5.11-9.38,5.11-11.12,5.11-10.27,5.11.9,5.11,8.47,5.11,6,5.1-6,5.11-9.37,5.11-4.21,5.11-.91h46l5.11,5.12,5.11,9.37,5.11,6,5.1-6,5.11-9.37,5.11-4.21,5.11-.91h10.22" transform="translate(-1.58 -330.91)"/>
      <path class="cls-18" d="M396.19,694.61h5.11l5.11-5.18,5.1-14.41,5.11-15.39,5.11-5.11,5.11,6,5.11,7.58,5.11,6,5.11-4.21,5.1-21.4,5.11-23,5.11-11.12,5.11,5.11,5.11,9.37,5.11,4.21,5.11.9,5.11-5.11,5.1-14.48L493.25,599h5.11l5.11,20.5,5.11,23,5.11,11.12h10.22l5.1,1.8,5.11-6.91,5.11-9.37,5.11-4.21,5.11-.91h5.11" transform="translate(-1.58 -330.91)"/>
      <path class="cls-12" d="M396.19,612.14l5.11-.87,5.11,2.86,5.1-4.81L416.62,593l5.11-13.58,5.11-5.11,5.11-.91h10.22l5.1,5.12,5.11,9.37,5.11,6,5.11-6,5.11-9.37,5.11-4.21,5.11-.91H483l5.1,5.12L493.25,593l5.11,15.39h5.11L508.58,593l5.11-13.58h5.11l5.11,8.47,5.1,6,5.11,4.21,5.11,9.38,5.11,7.81,5.11-10.26,5.11-16.53" transform="translate(-1.58 -330.91)"/>
      <path class="cls-13" d="M396.19,655.91l5.11.87,5.11-13.24,5.1-18.89,5.11-15.33,5.11-9.38,5.11-6L432,593l5.11,6.91,5.11,2.46,5.1,1.75,5.11-.85,5.11-4.26,5.11-10.22,5.11-5.16,5.11,10.27,5.11,14.49H483l5.1-15.39,5.11-8.47,5.11,4.26L503.47,599l5.11,3.36,5.11,1.75,5.11-.85,5.11.85,5.1-.85,5.11-4.26,5.11-10.22,5.11-10.27,5.11-4.13,5.11-1" transform="translate(-1.58 -330.91)"/>
      <path class="cls-14" d="M396.19,641.75l5.11,2.68,5.11.89,5.1-2.82,5.11,2.65,5.11-.85,5.11-6.06,5.11-3.31,5.11-6,5.11-9.37,5.1-11.12,5.11-8.48,5.11-11.12,5.11-5.16,5.11,10.27,5.11,14.49h5.11L483,593l5.1-13.58h5.11l5.11,8.47L503.47,599l5.11,3.36,5.11-3.36,5.11-5.11,5.11-.9,5.1,1.8,5.11-6.91,5.11-9.37,5.11.9,5.11,9.8,5.11,14.48" transform="translate(-1.58 -330.91)"/>
      <path class="cls-15" d="M396.19,619.86l5.11,7.49,5.11,7.59,5.1-6,5.11-11.17,5.11,2.7L426.84,634,432,647.61l5.11,6.91,5.11-11.12,5.1-23.86,5.11-19.6,5.11-.9,5.11,10.28,5.11,4.21,5.11,4.21,5.11,11.17,5.11.91,5.1-22.3,5.11-17.85,5.11,5.16,5.11,18.7L508.58,628l5.11,5.11,5.11-4.21,5.11-9.37,5.1-6,5.11,11.12,5.11,18.75,5.11,10.22,5.11-3.78,5.11-8.26" transform="translate(-1.58 -330.91)"/>
      <path class="cls-16" d="M396.19,694.61l5.11-5.67,5.11-14.22,5.1-15.09,5.11-5.11,5.11-4.21L426.84,634,432,623.75l5.11,11.18,5.11,9.37,5.1-16.29,5.11-29,5.11-13.58,5.11,8.47,5.11,14.49h5.11l5.11-10.28,5.11-4.21,5.1,6,5.11,7.58,5.11,11.12,5.11,10.27,5.11-.9,5.11-13.58L518.8,599l5.11-5.11,5.1.9,5.11-6.91,5.11-9.37,5.11-4.21,5.11-.91h5.11" transform="translate(-1.58 -330.91)"/>
      <path class="cls-17" d="M396.19,657.28l5.11-17.58,5.11-11.78,5.1-1.47,5.11-3.55,5.11-4.26,5.11-8.42L432,593l5.11-13.58,5.11-5.11,5.1-.91H483l5.1,10.23,5.11,18.74,5.11,12,5.11-12,5.11-18.74,5.11-3.31,5.11,7.57,5.11,6,5.1-6,5.11-4.26,5.11,10.27,5.11,19.6,5.11,13.93,5.11,5.23" transform="translate(-1.58 -330.91)"/>
    </g>
    <path class="cls-19" d="M396.19,662.39l5.11-2.74,5.11-5.08,5.1-8.07,5.11-10.24,5.11-9.72,5.11-7.23L432,617l5.11,1,5.11-2.17,5.1-7.12,5.11-6.47,5.11-.79,5.11,3.17,5.11,3.63,5.11,1.65,5.11-.28,5.11-1.81,5.1-2,5.11,1.18,5.11,4.73,5.11,4,5.11-.76,5.11-3.39,5.11-2.73,5.11-.18,5.1-.09,5.11-2.64,5.11-2,5.11,2.07,5.11,3.24,5.11,2.16" transform="translate(-1.58 -330.91)"/>
  </g>
</svg>
