<svg width="2447" height="682" xmlns="http://www.w3.org/2000/svg" xmlns:xlink="http://www.w3.org/1999/xlink" overflow="hidden"><defs><clipPath id="clip0"><rect x="0" y="165" width="2447" height="682"/></clipPath><clipPath id="clip1"><rect x="0" y="532" width="93" height="100"/></clipPath><clipPath id="clip2"><rect x="0" y="532" width="93" height="100"/></clipPath><clipPath id="clip3"><rect x="0" y="532" width="93" height="100"/></clipPath><clipPath id="clip4"><rect x="0" y="532" width="93" height="100"/></clipPath><clipPath id="clip5"><rect x="92" y="532" width="91" height="100"/></clipPath><clipPath id="clip6"><rect x="92" y="532" width="91" height="100"/></clipPath><clipPath id="clip7"><rect x="92" y="532" width="91" height="100"/></clipPath><clipPath id="clip8"><rect x="92" y="532" width="91" height="100"/></clipPath><clipPath id="clip9"><rect x="182" y="532" width="93" height="100"/></clipPath><clipPath id="clip10"><rect x="182" y="532" width="93" height="100"/></clipPath><clipPath id="clip11"><rect x="182" y="532" width="93" height="100"/></clipPath><clipPath id="clip12"><rect x="182" y="532" width="93" height="100"/></clipPath><clipPath id="clip13"><rect x="275" y="532" width="93" height="100"/></clipPath><clipPath id="clip14"><rect x="275" y="532" width="93" height="100"/></clipPath><clipPath id="clip15"><rect x="275" y="532" width="93" height="100"/></clipPath><clipPath id="clip16"><rect x="275" y="532" width="93" height="100"/></clipPath><clipPath id="clip17"><rect x="457" y="532" width="93" height="100"/></clipPath><clipPath id="clip18"><rect x="457" y="532" width="93" height="100"/></clipPath><clipPath id="clip19"><rect x="457" y="532" width="93" height="100"/></clipPath><clipPath id="clip20"><rect x="457" y="532" width="93" height="100"/></clipPath><clipPath id="clip21"><rect x="550" y="532" width="93" height="100"/></clipPath><clipPath id="clip22"><rect x="550" y="532" width="93" height="100"/></clipPath><clipPath id="clip23"><rect x="550" y="532" width="93" height="100"/></clipPath><clipPath id="clip24"><rect x="550" y="532" width="93" height="100"/></clipPath><clipPath id="clip25"><rect x="642" y="532" width="91" height="100"/></clipPath><clipPath id="clip26"><rect x="642" y="532" width="91" height="100"/></clipPath><clipPath id="clip27"><rect x="642" y="532" width="91" height="100"/></clipPath><clipPath id="clip28"><rect x="642" y="532" width="91" height="100"/></clipPath><clipPath id="clip29"><rect x="732" y="532" width="93" height="100"/></clipPath><clipPath id="clip30"><rect x="732" y="532" width="93" height="100"/></clipPath><clipPath id="clip31"><rect x="732" y="532" width="93" height="100"/></clipPath><clipPath id="clip32"><rect x="732" y="532" width="93" height="100"/></clipPath><clipPath id="clip33"><rect x="917" y="532" width="91" height="100"/></clipPath><clipPath id="clip34"><rect x="917" y="532" width="91" height="100"/></clipPath><clipPath id="clip35"><rect x="917" y="532" width="91" height="100"/></clipPath><clipPath id="clip36"><rect x="917" y="532" width="91" height="100"/></clipPath><clipPath id="clip37"><rect x="1007" y="532" width="93" height="100"/></clipPath><clipPath id="clip38"><rect x="1007" y="532" width="93" height="100"/></clipPath><clipPath id="clip39"><rect x="1007" y="532" width="93" height="100"/></clipPath><clipPath id="clip40"><rect x="1007" y="532" width="93" height="100"/></clipPath><clipPath id="clip41"><rect x="1100" y="532" width="93" height="100"/></clipPath><clipPath id="clip42"><rect x="1100" y="532" width="93" height="100"/></clipPath><clipPath id="clip43"><rect x="1100" y="532" width="93" height="100"/></clipPath><clipPath id="clip44"><rect x="1100" y="532" width="93" height="100"/></clipPath><clipPath id="clip45"><rect x="1282" y="532" width="93" height="100"/></clipPath><clipPath id="clip46"><rect x="1282" y="532" width="93" height="100"/></clipPath><clipPath id="clip47"><rect x="1282" y="532" width="93" height="100"/></clipPath><clipPath id="clip48"><rect x="1282" y="532" width="93" height="100"/></clipPath><clipPath id="clip49"><rect x="1375" y="532" width="93" height="100"/></clipPath><clipPath id="clip50"><rect x="1375" y="532" width="93" height="100"/></clipPath><clipPath id="clip51"><rect x="1375" y="532" width="93" height="100"/></clipPath><clipPath id="clip52"><rect x="1375" y="532" width="93" height="100"/></clipPath><clipPath id="clip53"><rect x="1467" y="532" width="91" height="100"/></clipPath><clipPath id="clip54"><rect x="1467" y="532" width="91" height="100"/></clipPath><clipPath id="clip55"><rect x="1467" y="532" width="91" height="100"/></clipPath><clipPath id="clip56"><rect x="1467" y="532" width="91" height="100"/></clipPath><clipPath id="clip57"><rect x="1650" y="532" width="93" height="100"/></clipPath><clipPath id="clip58"><rect x="1650" y="532" width="93" height="100"/></clipPath><clipPath id="clip59"><rect x="1650" y="532" width="93" height="100"/></clipPath><clipPath id="clip60"><rect x="1650" y="532" width="93" height="100"/></clipPath><clipPath id="clip61"><rect x="1742" y="532" width="91" height="100"/></clipPath><clipPath id="clip62"><rect x="1742" y="532" width="91" height="100"/></clipPath><clipPath id="clip63"><rect x="1742" y="532" width="91" height="100"/></clipPath><clipPath id="clip64"><rect x="1742" y="532" width="91" height="100"/></clipPath><clipPath id="clip65"><rect x="1832" y="532" width="93" height="100"/></clipPath><clipPath id="clip66"><rect x="1832" y="532" width="93" height="100"/></clipPath><clipPath id="clip67"><rect x="1832" y="532" width="93" height="100"/></clipPath><clipPath id="clip68"><rect x="1832" y="532" width="93" height="100"/></clipPath><clipPath id="clip69"><rect x="2107" y="532" width="93" height="100"/></clipPath><clipPath id="clip70"><rect x="2107" y="532" width="93" height="100"/></clipPath><clipPath id="clip71"><rect x="2107" y="532" width="93" height="100"/></clipPath><clipPath id="clip72"><rect x="2107" y="532" width="93" height="100"/></clipPath><clipPath id="clip73"><rect x="2200" y="532" width="93" height="100"/></clipPath><clipPath id="clip74"><rect x="2200" y="532" width="93" height="100"/></clipPath><clipPath id="clip75"><rect x="2200" y="532" width="93" height="100"/></clipPath><clipPath id="clip76"><rect x="2200" y="532" width="93" height="100"/></clipPath><clipPath id="clip77"><rect x="916" y="152" width="276" height="463"/></clipPath><clipPath id="clip78"><rect x="1283" y="152" width="276" height="463"/></clipPath><clipPath id="clip79"><rect x="1649" y="152" width="276" height="463"/></clipPath><clipPath id="clip80"><rect x="-1" y="251" width="93" height="463"/></clipPath><clipPath id="clip81"><rect x="91" y="251" width="93" height="463"/></clipPath><clipPath id="clip82"><rect x="183" y="251" width="92" height="463"/></clipPath><clipPath id="clip83"><rect x="274" y="251" width="93" height="463"/></clipPath><clipPath id="clip84"><rect x="458" y="251" width="92" height="463"/></clipPath><clipPath id="clip85"><rect x="549" y="251" width="93" height="463"/></clipPath><clipPath id="clip86"><rect x="641" y="251" width="93" height="463"/></clipPath><clipPath id="clip87"><rect x="733" y="251" width="92" height="463"/></clipPath><clipPath id="clip88"><rect x="916" y="251" width="93" height="463"/></clipPath><clipPath id="clip89"><rect x="1008" y="251" width="92" height="463"/></clipPath><clipPath id="clip90"><rect x="1099" y="251" width="93" height="463"/></clipPath><clipPath id="clip91"><rect x="1283" y="251" width="92" height="463"/></clipPath><clipPath id="clip92"><rect x="1374" y="251" width="93" height="463"/></clipPath><clipPath id="clip93"><rect x="1466" y="251" width="93" height="463"/></clipPath><clipPath id="clip94"><rect x="1649" y="251" width="93" height="463"/></clipPath><clipPath id="clip95"><rect x="1741" y="251" width="93" height="463"/></clipPath><clipPath id="clip96"><rect x="1833" y="251" width="92" height="463"/></clipPath><clipPath id="clip97"><rect x="366" y="350" width="93" height="463"/></clipPath><clipPath id="clip98"><rect x="824" y="350" width="93" height="463"/></clipPath><clipPath id="clip99"><rect x="1191" y="350" width="93" height="463"/></clipPath><clipPath id="clip100"><rect x="1558" y="350" width="92" height="463"/></clipPath><clipPath id="clip101"><rect x="1924" y="350" width="93" height="463"/></clipPath><clipPath id="clip102"><rect x="-1" y="449" width="93" height="463"/></clipPath><clipPath id="clip103"><rect x="91" y="449" width="93" height="463"/></clipPath><clipPath id="clip104"><rect x="183" y="449" width="92" height="463"/></clipPath><clipPath id="clip105"><rect x="274" y="449" width="93" height="463"/></clipPath><clipPath id="clip106"><rect x="458" y="449" width="92" height="463"/></clipPath><clipPath id="clip107"><rect x="549" y="449" width="93" height="463"/></clipPath><clipPath id="clip108"><rect x="641" y="449" width="93" height="463"/></clipPath><clipPath id="clip109"><rect x="733" y="449" width="92" height="463"/></clipPath><clipPath id="clip110"><rect x="916" y="449" width="93" height="463"/></clipPath><clipPath id="clip111"><rect x="1008" y="449" width="92" height="463"/></clipPath><clipPath id="clip112"><rect x="1099" y="449" width="93" height="463"/></clipPath><clipPath id="clip113"><rect x="1283" y="449" width="92" height="463"/></clipPath><clipPath id="clip114"><rect x="1374" y="449" width="93" height="463"/></clipPath><clipPath id="clip115"><rect x="1466" y="449" width="93" height="463"/></clipPath><clipPath id="clip116"><rect x="1649" y="449" width="93" height="463"/></clipPath><clipPath id="clip117"><rect x="1741" y="449" width="93" height="463"/></clipPath><clipPath id="clip118"><rect x="1833" y="449" width="92" height="463"/></clipPath><clipPath id="clip119"><rect x="2108" y="449" width="92" height="463"/></clipPath><clipPath id="clip120"><rect x="2199" y="449" width="93" height="463"/></clipPath><clipPath id="clip121"><rect x="-1" y="548" width="93" height="463"/></clipPath><clipPath id="clip122"><rect x="91" y="548" width="93" height="463"/></clipPath><clipPath id="clip123"><rect x="183" y="548" width="92" height="463"/></clipPath><clipPath id="clip124"><rect x="274" y="548" width="93" height="463"/></clipPath><clipPath id="clip125"><rect x="458" y="548" width="92" height="463"/></clipPath><clipPath id="clip126"><rect x="549" y="548" width="93" height="463"/></clipPath><clipPath id="clip127"><rect x="641" y="548" width="93" height="463"/></clipPath><clipPath id="clip128"><rect x="733" y="548" width="92" height="463"/></clipPath><clipPath id="clip129"><rect x="916" y="548" width="93" height="463"/></clipPath><clipPath id="clip130"><rect x="1008" y="548" width="92" height="463"/></clipPath><clipPath id="clip131"><rect x="1099" y="548" width="93" height="463"/></clipPath><clipPath id="clip132"><rect x="1283" y="548" width="92" height="463"/></clipPath><clipPath id="clip133"><rect x="1374" y="548" width="93" height="463"/></clipPath><clipPath id="clip134"><rect x="1466" y="548" width="93" height="463"/></clipPath><clipPath id="clip135"><rect x="1649" y="548" width="93" height="463"/></clipPath><clipPath id="clip136"><rect x="1741" y="548" width="93" height="463"/></clipPath><clipPath id="clip137"><rect x="1833" y="548" width="92" height="463"/></clipPath><clipPath id="clip138"><rect x="2108" y="548" width="92" height="463"/></clipPath><clipPath id="clip139"><rect x="2199" y="548" width="93" height="463"/></clipPath></defs><g clip-path="url(#clip0)" transform="matrix(1 0 0 1 0 -165)"><g clip-path="url(#clip1)"><g clip-path="url(#clip2)"><g clip-path="url(#clip3)"><g clip-path="url(#clip4)"><path d="M295.167 81.2668 385.634 81.2668 385.634 172.5 295.167 172.5ZM306.475 92.5751 306.475 161.192 374.326 161.192 374.326 92.5751Z" stroke="#FFFFFF" stroke-width="1.15" stroke-linecap="butt" stroke-linejoin="round" stroke-miterlimit="10" stroke-opacity="1" fill="#FF0000" fill-rule="evenodd" fill-opacity="1" transform="matrix(1 0 0 1.05844 -294.4 447.732)"/></g></g></g></g><g clip-path="url(#clip5)"><g clip-path="url(#clip6)"><g clip-path="url(#clip7)"><g clip-path="url(#clip8)"><path d="M291.957 80.3831 381.441 80.3831 381.441 170.624 291.957 170.624ZM303.143 91.5685 303.143 159.439 370.255 159.439 370.255 91.5685Z" stroke="#FFFFFF" stroke-width="1.1375" stroke-linecap="butt" stroke-linejoin="round" stroke-miterlimit="10" stroke-opacity="1" fill="#FF0000" fill-rule="evenodd" fill-opacity="1" transform="matrix(1 0 0 1.07008 -199.199 447.732)"/></g></g></g></g><g clip-path="url(#clip9)"><g clip-path="url(#clip10)"><g clip-path="url(#clip11)"><g clip-path="url(#clip12)"><path d="M295.167 81.2668 385.634 81.2668 385.634 172.5 295.167 172.5ZM306.475 92.5751 306.475 161.192 374.326 161.192 374.326 92.5751Z" stroke="#FFFFFF" stroke-width="1.15" stroke-linecap="butt" stroke-linejoin="round" stroke-miterlimit="10" stroke-opacity="1" fill="#FF0000" fill-rule="evenodd" fill-opacity="1" transform="matrix(1 0 0 1.05844 -111.401 447.732)"/></g></g></g></g><g clip-path="url(#clip13)"><g clip-path="url(#clip14)"><g clip-path="url(#clip15)"><g clip-path="url(#clip16)"><path d="M295.167 81.2668 385.634 81.2668 385.634 172.5 295.167 172.5ZM306.475 92.5751 306.475 161.192 374.326 161.192 374.326 92.5751Z" stroke="#FFFFFF" stroke-width="1.15" stroke-linecap="butt" stroke-linejoin="round" stroke-miterlimit="10" stroke-opacity="1" fill="#FF0000" fill-rule="evenodd" fill-opacity="1" transform="matrix(1 0 0 1.05844 -19.4004 447.732)"/></g></g></g></g><g clip-path="url(#clip17)"><g clip-path="url(#clip18)"><g clip-path="url(#clip19)"><g clip-path="url(#clip20)"><path d="M295.167 81.2668 385.634 81.2668 385.634 172.5 295.167 172.5ZM306.475 92.5751 306.475 161.192 374.326 161.192 374.326 92.5751Z" stroke="#FFFFFF" stroke-width="1.15" stroke-linecap="butt" stroke-linejoin="round" stroke-miterlimit="10" stroke-opacity="1" fill="#92D050" fill-rule="evenodd" fill-opacity="1" transform="matrix(1 0 0 1.05844 163.599 447.732)"/></g></g></g></g><g clip-path="url(#clip21)"><g clip-path="url(#clip22)"><g clip-path="url(#clip23)"><g clip-path="url(#clip24)"><path d="M295.167 81.2668 385.634 81.2668 385.634 172.5 295.167 172.5ZM306.475 92.5751 306.475 161.192 374.326 161.192 374.326 92.5751Z" stroke="#FFFFFF" stroke-width="1.15" stroke-linecap="butt" stroke-linejoin="round" stroke-miterlimit="10" stroke-opacity="1" fill="#92D050" fill-rule="evenodd" fill-opacity="1" transform="matrix(1 0 0 1.05844 255.6 447.732)"/></g></g></g></g><g clip-path="url(#clip25)"><g clip-path="url(#clip26)"><g clip-path="url(#clip27)"><g clip-path="url(#clip28)"><path d="M291.957 80.3831 381.441 80.3831 381.441 170.624 291.957 170.624ZM303.143 91.5685 303.143 159.439 370.255 159.439 370.255 91.5685Z" stroke="#FFFFFF" stroke-width="1.1375" stroke-linecap="butt" stroke-linejoin="round" stroke-miterlimit="10" stroke-opacity="1" fill="#92D050" fill-rule="evenodd" fill-opacity="1" transform="matrix(1 0 0 1.07008 350.801 447.732)"/></g></g></g></g><g clip-path="url(#clip29)"><g clip-path="url(#clip30)"><g clip-path="url(#clip31)"><g clip-path="url(#clip32)"><path d="M295.167 81.2668 385.634 81.2668 385.634 172.5 295.167 172.5ZM306.475 92.5751 306.475 161.192 374.326 161.192 374.326 92.5751Z" stroke="#FFFFFF" stroke-width="1.15" stroke-linecap="butt" stroke-linejoin="round" stroke-miterlimit="10" stroke-opacity="1" fill="#92D050" fill-rule="evenodd" fill-opacity="1" transform="matrix(1 0 0 1.05844 438.599 447.732)"/></g></g></g></g><g clip-path="url(#clip33)"><g clip-path="url(#clip34)"><g clip-path="url(#clip35)"><g clip-path="url(#clip36)"><path d="M291.957 80.3831 381.441 80.3831 381.441 170.624 291.957 170.624ZM303.143 91.5685 303.143 159.439 370.255 159.439 370.255 91.5685Z" stroke="#FFFFFF" stroke-width="1.1375" stroke-linecap="butt" stroke-linejoin="round" stroke-miterlimit="10" stroke-opacity="1" fill="#FFFF00" fill-rule="evenodd" fill-opacity="1" transform="matrix(1 0 0 1.07008 625.801 447.732)"/></g></g></g></g><g clip-path="url(#clip37)"><g clip-path="url(#clip38)"><g clip-path="url(#clip39)"><g clip-path="url(#clip40)"><path d="M295.167 81.2668 385.634 81.2668 385.634 172.5 295.167 172.5ZM306.475 92.5751 306.475 161.192 374.326 161.192 374.326 92.5751Z" stroke="#FFFFFF" stroke-width="1.15" stroke-linecap="butt" stroke-linejoin="round" stroke-miterlimit="10" stroke-opacity="1" fill="#FFFF00" fill-rule="evenodd" fill-opacity="1" transform="matrix(1 0 0 1.05844 713.599 447.732)"/></g></g></g></g><g clip-path="url(#clip41)"><g clip-path="url(#clip42)"><g clip-path="url(#clip43)"><g clip-path="url(#clip44)"><path d="M295.167 81.2668 385.634 81.2668 385.634 172.5 295.167 172.5ZM306.475 92.5751 306.475 161.192 374.326 161.192 374.326 92.5751Z" stroke="#FFFFFF" stroke-width="1.15" stroke-linecap="butt" stroke-linejoin="round" stroke-miterlimit="10" stroke-opacity="1" fill="#FFFF00" fill-rule="evenodd" fill-opacity="1" transform="matrix(1 0 0 1.05844 805.6 447.732)"/></g></g></g></g><g clip-path="url(#clip45)"><g clip-path="url(#clip46)"><g clip-path="url(#clip47)"><g clip-path="url(#clip48)"><path d="M295.167 81.2668 385.634 81.2668 385.634 172.5 295.167 172.5ZM306.475 92.5751 306.475 161.192 374.326 161.192 374.326 92.5751Z" stroke="#FFFFFF" stroke-width="1.15" stroke-linecap="butt" stroke-linejoin="round" stroke-miterlimit="10" stroke-opacity="1" fill="#9437FF" fill-rule="evenodd" fill-opacity="1" transform="matrix(1 0 0 1.05844 988.599 447.732)"/></g></g></g></g><g clip-path="url(#clip49)"><g clip-path="url(#clip50)"><g clip-path="url(#clip51)"><g clip-path="url(#clip52)"><path d="M295.167 81.2668 385.634 81.2668 385.634 172.5 295.167 172.5ZM306.475 92.5751 306.475 161.192 374.326 161.192 374.326 92.5751Z" stroke="#FFFFFF" stroke-width="1.15" stroke-linecap="butt" stroke-linejoin="round" stroke-miterlimit="10" stroke-opacity="1" fill="#9437FF" fill-rule="evenodd" fill-opacity="1" transform="matrix(1 0 0 1.05844 1080.6 447.732)"/></g></g></g></g><g clip-path="url(#clip53)"><g clip-path="url(#clip54)"><g clip-path="url(#clip55)"><g clip-path="url(#clip56)"><path d="M291.957 80.3831 381.441 80.3831 381.441 170.624 291.957 170.624ZM303.143 91.5685 303.143 159.439 370.255 159.439 370.255 91.5685Z" stroke="#FFFFFF" stroke-width="1.1375" stroke-linecap="butt" stroke-linejoin="round" stroke-miterlimit="10" stroke-opacity="1" fill="#9437FF" fill-rule="evenodd" fill-opacity="1" transform="matrix(1 0 0 1.07008 1175.8 447.732)"/></g></g></g></g><g clip-path="url(#clip57)"><g clip-path="url(#clip58)"><g clip-path="url(#clip59)"><g clip-path="url(#clip60)"><path d="M295.167 81.2668 385.634 81.2668 385.634 172.5 295.167 172.5ZM306.475 92.5751 306.475 161.192 374.326 161.192 374.326 92.5751Z" stroke="#FFFFFF" stroke-width="1.15" stroke-linecap="butt" stroke-linejoin="round" stroke-miterlimit="10" stroke-opacity="1" fill="#FFFF00" fill-rule="evenodd" fill-opacity="1" transform="matrix(1 0 0 1.05844 1355.6 447.732)"/></g></g></g></g><g clip-path="url(#clip61)"><g clip-path="url(#clip62)"><g clip-path="url(#clip63)"><g clip-path="url(#clip64)"><path d="M291.957 80.3831 381.441 80.3831 381.441 170.624 291.957 170.624ZM303.143 91.5685 303.143 159.439 370.255 159.439 370.255 91.5685Z" stroke="#FFFFFF" stroke-width="1.1375" stroke-linecap="butt" stroke-linejoin="round" stroke-miterlimit="10" stroke-opacity="1" fill="#FFFF00" fill-rule="evenodd" fill-opacity="1" transform="matrix(1 0 0 1.07008 1450.8 447.732)"/></g></g></g></g><g clip-path="url(#clip65)"><g clip-path="url(#clip66)"><g clip-path="url(#clip67)"><g clip-path="url(#clip68)"><path d="M295.167 81.2668 385.634 81.2668 385.634 172.5 295.167 172.5ZM306.475 92.5751 306.475 161.192 374.326 161.192 374.326 92.5751Z" stroke="#FFFFFF" stroke-width="1.15" stroke-linecap="butt" stroke-linejoin="round" stroke-miterlimit="10" stroke-opacity="1" fill="#FFFF00" fill-rule="evenodd" fill-opacity="1" transform="matrix(1 0 0 1.05844 1538.6 447.732)"/></g></g></g></g><g clip-path="url(#clip69)"><g clip-path="url(#clip70)"><g clip-path="url(#clip71)"><g clip-path="url(#clip72)"><path d="M602.525 411.738 692.263 411.738 692.263 500.722 602.525 500.722ZM613.648 422.861 613.648 489.599 681.14 489.599 681.14 422.861Z" stroke="#FFFFFF" stroke-width="1.13115" stroke-linecap="butt" stroke-linejoin="round" stroke-miterlimit="10" stroke-opacity="1" fill="#FFFF00" fill-rule="evenodd" fill-opacity="1" transform="matrix(1 0 0 1.07609 1506.23 90.6824)"/></g></g></g></g><g clip-path="url(#clip73)"><g clip-path="url(#clip74)"><g clip-path="url(#clip75)"><g clip-path="url(#clip76)"><path d="M602.525 411.738 692.263 411.738 692.263 500.722 602.525 500.722ZM613.648 422.861 613.648 489.599 681.14 489.599 681.14 422.861Z" stroke="#FFFFFF" stroke-width="1.13115" stroke-linecap="butt" stroke-linejoin="round" stroke-miterlimit="10" stroke-opacity="1" fill="#9437FF" fill-rule="evenodd" fill-opacity="1" transform="matrix(1 0 0 1.07609 1598.23 90.6824)"/></g></g></g></g><path d="M916.667 334.125 916.667 829.125" stroke="#000000" stroke-width="6.875" stroke-linecap="butt" stroke-linejoin="round" stroke-miterlimit="10" stroke-opacity="1" fill="none" fill-rule="evenodd"/><path d="M2016.67 334.125 2016.67 829.125" stroke="#000000" stroke-width="6.875" stroke-linecap="butt" stroke-linejoin="round" stroke-miterlimit="10" stroke-opacity="1" fill="none" fill-rule="evenodd"/><text fill="#000000" fill-opacity="1" font-family="Arial,Arial_MSFontService,sans-serif" font-style="normal" font-variant="normal" font-weight="400" font-stretch="normal" font-size="55" text-anchor="start" direction="ltr" writing-mode="lr-tb" unicode-bidi="normal" text-decoration="none" transform="matrix(1 0 0 1 65.8852 403)">Context 1<tspan fill="#000000" fill-opacity="1" font-family="Arial,Arial_MSFontService,sans-serif" font-style="normal" font-variant="normal" font-weight="400" font-stretch="normal" font-size="55" text-anchor="start" direction="ltr" writing-mode="lr-tb" unicode-bidi="normal" text-decoration="none" x="458.333" y="0">Context 2</tspan></text><g clip-path="url(#clip77)"><text fill="#000000" fill-opacity="1" font-family="Arial,Arial_MSFontService,sans-serif" font-style="normal" font-variant="normal" font-weight="400" font-stretch="normal" font-size="55" text-anchor="start" direction="ltr" writing-mode="lr-tb" unicode-bidi="normal" text-decoration="none" transform="matrix(1 0 0 1 936.719 403)">Context 1</text></g><g clip-path="url(#clip78)"><text fill="#000000" fill-opacity="1" font-family="Arial,Arial_MSFontService,sans-serif" font-style="normal" font-variant="normal" font-weight="400" font-stretch="normal" font-size="55" text-anchor="start" direction="ltr" writing-mode="lr-tb" unicode-bidi="normal" text-decoration="none" transform="matrix(1 0 0 1 1303.39 403)">Context 2</text></g><g clip-path="url(#clip79)"><text fill="#000000" fill-opacity="1" font-family="Arial,Arial_MSFontService,sans-serif" font-style="normal" font-variant="normal" font-weight="400" font-stretch="normal" font-size="55" text-anchor="start" direction="ltr" writing-mode="lr-tb" unicode-bidi="normal" text-decoration="none" transform="matrix(1 0 0 1 1670.05 403)">Context 1</text></g><g clip-path="url(#clip80)"><text fill="#000000" fill-opacity="1" font-family="Arial,Arial_MSFontService,sans-serif" font-style="normal" font-variant="normal" font-weight="400" font-stretch="normal" font-size="55" text-anchor="start" direction="ltr" writing-mode="lr-tb" unicode-bidi="normal" text-decoration="none" transform="matrix(1 0 0 1 27.5 502)">A</text></g><g clip-path="url(#clip81)"><text fill="#000000" fill-opacity="1" font-family="Arial,Arial_MSFontService,sans-serif" font-style="normal" font-variant="normal" font-weight="400" font-stretch="normal" font-size="55" text-anchor="start" direction="ltr" writing-mode="lr-tb" unicode-bidi="normal" text-decoration="none" transform="matrix(1 0 0 1 117.734 502)">C</text></g><g clip-path="url(#clip82)"><text fill="#000000" fill-opacity="1" font-family="Arial,Arial_MSFontService,sans-serif" font-style="normal" font-variant="normal" font-weight="400" font-stretch="normal" font-size="55" text-anchor="start" direction="ltr" writing-mode="lr-tb" unicode-bidi="normal" text-decoration="none" transform="matrix(1 0 0 1 209.401 502)">D</text></g><g clip-path="url(#clip83)"><text fill="#000000" fill-opacity="1" font-family="Arial,Arial_MSFontService,sans-serif" font-style="normal" font-variant="normal" font-weight="400" font-stretch="normal" font-size="55" text-anchor="start" direction="ltr" writing-mode="lr-tb" unicode-bidi="normal" text-decoration="none" transform="matrix(1 0 0 1 302.5 502)">B</text></g><g clip-path="url(#clip84)"><text fill="#000000" fill-opacity="1" font-family="Arial,Arial_MSFontService,sans-serif" font-style="normal" font-variant="normal" font-weight="400" font-stretch="normal" font-size="55" text-anchor="start" direction="ltr" writing-mode="lr-tb" unicode-bidi="normal" text-decoration="none" transform="matrix(1 0 0 1 484.401 502)">D</text></g><g clip-path="url(#clip85)"><text fill="#000000" fill-opacity="1" font-family="Arial,Arial_MSFontService,sans-serif" font-style="normal" font-variant="normal" font-weight="400" font-stretch="normal" font-size="55" text-anchor="start" direction="ltr" writing-mode="lr-tb" unicode-bidi="normal" text-decoration="none" transform="matrix(1 0 0 1 577.5 502)">A</text></g><g clip-path="url(#clip86)"><text fill="#000000" fill-opacity="1" font-family="Arial,Arial_MSFontService,sans-serif" font-style="normal" font-variant="normal" font-weight="400" font-stretch="normal" font-size="55" text-anchor="start" direction="ltr" writing-mode="lr-tb" unicode-bidi="normal" text-decoration="none" transform="matrix(1 0 0 1 669.167 502)">B</text></g><g clip-path="url(#clip87)"><text fill="#000000" fill-opacity="1" font-family="Arial,Arial_MSFontService,sans-serif" font-style="normal" font-variant="normal" font-weight="400" font-stretch="normal" font-size="55" text-anchor="start" direction="ltr" writing-mode="lr-tb" unicode-bidi="normal" text-decoration="none" transform="matrix(1 0 0 1 759.401 502)">C</text></g><g clip-path="url(#clip88)"><text fill="#000000" fill-opacity="1" font-family="Arial,Arial_MSFontService,sans-serif" font-style="normal" font-variant="normal" font-weight="400" font-stretch="normal" font-size="55" text-anchor="start" direction="ltr" writing-mode="lr-tb" unicode-bidi="normal" text-decoration="none" transform="matrix(1 0 0 1 942.734 502)">C</text></g><g clip-path="url(#clip89)"><text fill="#000000" fill-opacity="1" font-family="Arial,Arial_MSFontService,sans-serif" font-style="normal" font-variant="normal" font-weight="400" font-stretch="normal" font-size="55" text-anchor="start" direction="ltr" writing-mode="lr-tb" unicode-bidi="normal" text-decoration="none" transform="matrix(1 0 0 1 1035.83 502)">B</text></g><g clip-path="url(#clip90)"><text fill="#000000" fill-opacity="1" font-family="Arial,Arial_MSFontService,sans-serif" font-style="normal" font-variant="normal" font-weight="400" font-stretch="normal" font-size="55" text-anchor="start" direction="ltr" writing-mode="lr-tb" unicode-bidi="normal" text-decoration="none" transform="matrix(1 0 0 1 1127.5 502)">A</text></g><g clip-path="url(#clip91)"><text fill="#000000" fill-opacity="1" font-family="Arial,Arial_MSFontService,sans-serif" font-style="normal" font-variant="normal" font-weight="400" font-stretch="normal" font-size="55" text-anchor="start" direction="ltr" writing-mode="lr-tb" unicode-bidi="normal" text-decoration="none" transform="matrix(1 0 0 1 1310.83 502)">A</text></g><g clip-path="url(#clip92)"><text fill="#000000" fill-opacity="1" font-family="Arial,Arial_MSFontService,sans-serif" font-style="normal" font-variant="normal" font-weight="400" font-stretch="normal" font-size="55" text-anchor="start" direction="ltr" writing-mode="lr-tb" unicode-bidi="normal" text-decoration="none" transform="matrix(1 0 0 1 1401.07 502)">C</text></g><g clip-path="url(#clip93)"><text fill="#000000" fill-opacity="1" font-family="Arial,Arial_MSFontService,sans-serif" font-style="normal" font-variant="normal" font-weight="400" font-stretch="normal" font-size="55" text-anchor="start" direction="ltr" writing-mode="lr-tb" unicode-bidi="normal" text-decoration="none" transform="matrix(1 0 0 1 1494.17 502)">B</text></g><g clip-path="url(#clip94)"><text fill="#000000" fill-opacity="1" font-family="Arial,Arial_MSFontService,sans-serif" font-style="normal" font-variant="normal" font-weight="400" font-stretch="normal" font-size="55" text-anchor="start" direction="ltr" writing-mode="lr-tb" unicode-bidi="normal" text-decoration="none" transform="matrix(1 0 0 1 1677.5 502)">B</text></g><g clip-path="url(#clip95)"><text fill="#000000" fill-opacity="1" font-family="Arial,Arial_MSFontService,sans-serif" font-style="normal" font-variant="normal" font-weight="400" font-stretch="normal" font-size="55" text-anchor="start" direction="ltr" writing-mode="lr-tb" unicode-bidi="normal" text-decoration="none" transform="matrix(1 0 0 1 1767.73 502)">C</text></g><g clip-path="url(#clip96)"><text fill="#000000" fill-opacity="1" font-family="Arial,Arial_MSFontService,sans-serif" font-style="normal" font-variant="normal" font-weight="400" font-stretch="normal" font-size="55" text-anchor="start" direction="ltr" writing-mode="lr-tb" unicode-bidi="normal" text-decoration="none" transform="matrix(1 0 0 1 1860.83 502)">A</text></g><text fill="#000000" fill-opacity="1" font-family="Arial,Arial_MSFontService,sans-serif" font-style="normal" font-variant="normal" font-weight="400" font-stretch="normal" font-size="55" text-anchor="start" direction="ltr" writing-mode="lr-tb" unicode-bidi="normal" text-decoration="none" transform="matrix(1 0 0 1 2180.23 502)">D</text><g clip-path="url(#clip97)"><text fill="#000000" fill-opacity="1" font-family="Arial,Arial_MSFontService,sans-serif" font-style="normal" font-variant="normal" font-weight="400" font-stretch="normal" font-size="55" text-anchor="start" direction="ltr" writing-mode="lr-tb" unicode-bidi="normal" text-decoration="none" transform="matrix(1 0 0 1 385 601)">…</text></g><g clip-path="url(#clip98)"><text fill="#000000" fill-opacity="1" font-family="Arial,Arial_MSFontService,sans-serif" font-style="normal" font-variant="normal" font-weight="400" font-stretch="normal" font-size="55" text-anchor="start" direction="ltr" writing-mode="lr-tb" unicode-bidi="normal" text-decoration="none" transform="matrix(1 0 0 1 843.333 601)">…  </text></g><g clip-path="url(#clip99)"><text fill="#000000" fill-opacity="1" font-family="Arial,Arial_MSFontService,sans-serif" font-style="normal" font-variant="normal" font-weight="400" font-stretch="normal" font-size="55" text-anchor="start" direction="ltr" writing-mode="lr-tb" unicode-bidi="normal" text-decoration="none" transform="matrix(1 0 0 1 1210 601)">…</text></g><g clip-path="url(#clip100)"><text fill="#000000" fill-opacity="1" font-family="Arial,Arial_MSFontService,sans-serif" font-style="normal" font-variant="normal" font-weight="400" font-stretch="normal" font-size="55" text-anchor="start" direction="ltr" writing-mode="lr-tb" unicode-bidi="normal" text-decoration="none" transform="matrix(1 0 0 1 1576.67 601)">…</text></g><g clip-path="url(#clip101)"><text fill="#000000" fill-opacity="1" font-family="Arial,Arial_MSFontService,sans-serif" font-style="normal" font-variant="normal" font-weight="400" font-stretch="normal" font-size="55" text-anchor="start" direction="ltr" writing-mode="lr-tb" unicode-bidi="normal" text-decoration="none" transform="matrix(1 0 0 1 1943.33 601)">…</text></g><g clip-path="url(#clip102)"><text fill="#000000" fill-opacity="1" font-family="Arial,Arial_MSFontService,sans-serif" font-style="normal" font-variant="normal" font-weight="400" font-stretch="normal" font-size="55" text-anchor="start" direction="ltr" writing-mode="lr-tb" unicode-bidi="normal" text-decoration="none" transform="matrix(1 0 0 1 32.0833 700)">↑</text></g><g clip-path="url(#clip103)"><text fill="#000000" fill-opacity="1" font-family="Arial,Arial_MSFontService,sans-serif" font-style="normal" font-variant="normal" font-weight="400" font-stretch="normal" font-size="55" text-anchor="start" direction="ltr" writing-mode="lr-tb" unicode-bidi="normal" text-decoration="none" transform="matrix(1 0 0 1 123.75 700)">↓</text></g><g clip-path="url(#clip104)"><text fill="#000000" fill-opacity="1" font-family="Arial,Arial_MSFontService,sans-serif" font-style="normal" font-variant="normal" font-weight="400" font-stretch="normal" font-size="55" text-anchor="start" direction="ltr" writing-mode="lr-tb" unicode-bidi="normal" text-decoration="none" transform="matrix(1 0 0 1 201.667 700)">→</text></g><g clip-path="url(#clip105)"><text fill="#000000" fill-opacity="1" font-family="Arial,Arial_MSFontService,sans-serif" font-style="normal" font-variant="normal" font-weight="400" font-stretch="normal" font-size="55" text-anchor="start" direction="ltr" writing-mode="lr-tb" unicode-bidi="normal" text-decoration="none" transform="matrix(1 0 0 1 293.333 700)">←</text></g><g clip-path="url(#clip106)"><text fill="#000000" fill-opacity="1" font-family="Arial,Arial_MSFontService,sans-serif" font-style="normal" font-variant="normal" font-weight="400" font-stretch="normal" font-size="55" text-anchor="start" direction="ltr" writing-mode="lr-tb" unicode-bidi="normal" text-decoration="none" transform="matrix(1 0 0 1 490.417 700)">↓</text></g><g clip-path="url(#clip107)"><text fill="#000000" fill-opacity="1" font-family="Arial,Arial_MSFontService,sans-serif" font-style="normal" font-variant="normal" font-weight="400" font-stretch="normal" font-size="55" text-anchor="start" direction="ltr" writing-mode="lr-tb" unicode-bidi="normal" text-decoration="none" transform="matrix(1 0 0 1 568.333 700)">→</text></g><g clip-path="url(#clip108)"><text fill="#000000" fill-opacity="1" font-family="Arial,Arial_MSFontService,sans-serif" font-style="normal" font-variant="normal" font-weight="400" font-stretch="normal" font-size="55" text-anchor="start" direction="ltr" writing-mode="lr-tb" unicode-bidi="normal" text-decoration="none" transform="matrix(1 0 0 1 673.75 700)">↑</text></g><g clip-path="url(#clip109)"><text fill="#000000" fill-opacity="1" font-family="Arial,Arial_MSFontService,sans-serif" font-style="normal" font-variant="normal" font-weight="400" font-stretch="normal" font-size="55" text-anchor="start" direction="ltr" writing-mode="lr-tb" unicode-bidi="normal" text-decoration="none" transform="matrix(1 0 0 1 751.667 700)">←</text></g><g clip-path="url(#clip110)"><text fill="#000000" fill-opacity="1" font-family="Arial,Arial_MSFontService,sans-serif" font-style="normal" font-variant="normal" font-weight="400" font-stretch="normal" font-size="55" text-anchor="start" direction="ltr" writing-mode="lr-tb" unicode-bidi="normal" text-decoration="none" transform="matrix(1 0 0 1 948.75 700)">↓</text></g><g clip-path="url(#clip111)"><text fill="#000000" fill-opacity="1" font-family="Arial,Arial_MSFontService,sans-serif" font-style="normal" font-variant="normal" font-weight="400" font-stretch="normal" font-size="55" text-anchor="start" direction="ltr" writing-mode="lr-tb" unicode-bidi="normal" text-decoration="none" transform="matrix(1 0 0 1 1026.67 700)">←</text></g><g clip-path="url(#clip112)"><text fill="#000000" fill-opacity="1" font-family="Arial,Arial_MSFontService,sans-serif" font-style="normal" font-variant="normal" font-weight="400" font-stretch="normal" font-size="55" text-anchor="start" direction="ltr" writing-mode="lr-tb" unicode-bidi="normal" text-decoration="none" transform="matrix(1 0 0 1 1132.08 700)">↑</text></g><g clip-path="url(#clip113)"><text fill="#000000" fill-opacity="1" font-family="Arial,Arial_MSFontService,sans-serif" font-style="normal" font-variant="normal" font-weight="400" font-stretch="normal" font-size="55" text-anchor="start" direction="ltr" writing-mode="lr-tb" unicode-bidi="normal" text-decoration="none" transform="matrix(1 0 0 1 1301.67 700)">→</text></g><g clip-path="url(#clip114)"><text fill="#000000" fill-opacity="1" font-family="Arial,Arial_MSFontService,sans-serif" font-style="normal" font-variant="normal" font-weight="400" font-stretch="normal" font-size="55" text-anchor="start" direction="ltr" writing-mode="lr-tb" unicode-bidi="normal" text-decoration="none" transform="matrix(1 0 0 1 1393.33 700)">←</text></g><g clip-path="url(#clip115)"><text fill="#000000" fill-opacity="1" font-family="Arial,Arial_MSFontService,sans-serif" font-style="normal" font-variant="normal" font-weight="400" font-stretch="normal" font-size="55" text-anchor="start" direction="ltr" writing-mode="lr-tb" unicode-bidi="normal" text-decoration="none" transform="matrix(1 0 0 1 1498.75 700)">↑</text></g><g clip-path="url(#clip116)"><text fill="#000000" fill-opacity="1" font-family="Arial,Arial_MSFontService,sans-serif" font-style="normal" font-variant="normal" font-weight="400" font-stretch="normal" font-size="55" text-anchor="start" direction="ltr" writing-mode="lr-tb" unicode-bidi="normal" text-decoration="none" transform="matrix(1 0 0 1 1668.33 700)">←</text></g><g clip-path="url(#clip117)"><text fill="#000000" fill-opacity="1" font-family="Arial,Arial_MSFontService,sans-serif" font-style="normal" font-variant="normal" font-weight="400" font-stretch="normal" font-size="55" text-anchor="start" direction="ltr" writing-mode="lr-tb" unicode-bidi="normal" text-decoration="none" transform="matrix(1 0 0 1 1773.75 700)">↓</text></g><g clip-path="url(#clip118)"><text fill="#000000" fill-opacity="1" font-family="Arial,Arial_MSFontService,sans-serif" font-style="normal" font-variant="normal" font-weight="400" font-stretch="normal" font-size="55" text-anchor="start" direction="ltr" writing-mode="lr-tb" unicode-bidi="normal" text-decoration="none" transform="matrix(1 0 0 1 1865.42 700)">↑</text></g><g clip-path="url(#clip119)"><text fill="#000000" fill-opacity="1" font-family="Arial,Arial_MSFontService,sans-serif" font-style="normal" font-variant="normal" font-weight="400" font-stretch="normal" font-size="55" text-anchor="start" direction="ltr" writing-mode="lr-tb" unicode-bidi="normal" text-decoration="none" transform="matrix(1 0 0 1 2126.67 700)">→</text></g><g clip-path="url(#clip120)"><text fill="#000000" fill-opacity="1" font-family="Arial,Arial_MSFontService,sans-serif" font-style="normal" font-variant="normal" font-weight="400" font-stretch="normal" font-size="55" text-anchor="start" direction="ltr" writing-mode="lr-tb" unicode-bidi="normal" text-decoration="none" transform="matrix(1 0 0 1 2232.08 700)">↓</text></g><g clip-path="url(#clip121)"><text fill="#00B050" fill-opacity="1" font-family="Arial,Arial_MSFontService,sans-serif" font-style="normal" font-variant="normal" font-weight="400" font-stretch="normal" font-size="55" text-anchor="start" direction="ltr" writing-mode="lr-tb" unicode-bidi="normal" text-decoration="none" transform="matrix(1 0 0 1 10.8852 799)">LR</text></g><g clip-path="url(#clip122)"><text fill="#FF0000" fill-opacity="1" font-family="Arial,Arial_MSFontService,sans-serif" font-style="normal" font-variant="normal" font-weight="400" font-stretch="normal" font-size="55" text-anchor="start" direction="ltr" writing-mode="lr-tb" unicode-bidi="normal" text-decoration="none" transform="matrix(1 0 0 1 99.4009 799)">SR</text></g><g clip-path="url(#clip123)"><text fill="#00B050" fill-opacity="1" font-family="Arial,Arial_MSFontService,sans-serif" font-style="normal" font-variant="normal" font-weight="400" font-stretch="normal" font-size="55" text-anchor="start" direction="ltr" writing-mode="lr-tb" unicode-bidi="normal" text-decoration="none" transform="matrix(1 0 0 1 194.219 799)">LR</text></g><g clip-path="url(#clip124)"><text fill="#FF0000" fill-opacity="1" font-family="Arial,Arial_MSFontService,sans-serif" font-style="normal" font-variant="normal" font-weight="400" font-stretch="normal" font-size="55" text-anchor="start" direction="ltr" writing-mode="lr-tb" unicode-bidi="normal" text-decoration="none" transform="matrix(1 0 0 1 282.734 799)">SR</text></g><g clip-path="url(#clip125)"><text fill="#00B050" fill-opacity="1" font-family="Arial,Arial_MSFontService,sans-serif" font-style="normal" font-variant="normal" font-weight="400" font-stretch="normal" font-size="55" text-anchor="start" direction="ltr" writing-mode="lr-tb" unicode-bidi="normal" text-decoration="none" transform="matrix(1 0 0 1 469.219 799)">LR</text></g><g clip-path="url(#clip126)"><text fill="#FF0000" fill-opacity="1" font-family="Arial,Arial_MSFontService,sans-serif" font-style="normal" font-variant="normal" font-weight="400" font-stretch="normal" font-size="55" text-anchor="start" direction="ltr" writing-mode="lr-tb" unicode-bidi="normal" text-decoration="none" transform="matrix(1 0 0 1 557.734 799)">SR</text></g><g clip-path="url(#clip127)"><text fill="#FF0000" fill-opacity="1" font-family="Arial,Arial_MSFontService,sans-serif" font-style="normal" font-variant="normal" font-weight="400" font-stretch="normal" font-size="55" text-anchor="start" direction="ltr" writing-mode="lr-tb" unicode-bidi="normal" text-decoration="none" transform="matrix(1 0 0 1 649.401 799)">SR</text></g><g clip-path="url(#clip128)"><text fill="#00B050" fill-opacity="1" font-family="Arial,Arial_MSFontService,sans-serif" font-style="normal" font-variant="normal" font-weight="400" font-stretch="normal" font-size="55" text-anchor="start" direction="ltr" writing-mode="lr-tb" unicode-bidi="normal" text-decoration="none" transform="matrix(1 0 0 1 744.219 799)">LR</text></g><g clip-path="url(#clip129)"><text fill="#FF0000" fill-opacity="1" font-family="Arial,Arial_MSFontService,sans-serif" font-style="normal" font-variant="normal" font-weight="400" font-stretch="normal" font-size="55" text-anchor="start" direction="ltr" writing-mode="lr-tb" unicode-bidi="normal" text-decoration="none" transform="matrix(1 0 0 1 924.401 799)">SR</text></g><g clip-path="url(#clip130)"><text fill="#FF0000" fill-opacity="1" font-family="Arial,Arial_MSFontService,sans-serif" font-style="normal" font-variant="normal" font-weight="400" font-stretch="normal" font-size="55" text-anchor="start" direction="ltr" writing-mode="lr-tb" unicode-bidi="normal" text-decoration="none" transform="matrix(1 0 0 1 1016.07 799)">SR</text></g><g clip-path="url(#clip131)"><text fill="#00B050" fill-opacity="1" font-family="Arial,Arial_MSFontService,sans-serif" font-style="normal" font-variant="normal" font-weight="400" font-stretch="normal" font-size="55" text-anchor="start" direction="ltr" writing-mode="lr-tb" unicode-bidi="normal" text-decoration="none" transform="matrix(1 0 0 1 1110.89 799)">LR</text></g><g clip-path="url(#clip132)"><text fill="#FF0000" fill-opacity="1" font-family="Arial,Arial_MSFontService,sans-serif" font-style="normal" font-variant="normal" font-weight="400" font-stretch="normal" font-size="55" text-anchor="start" direction="ltr" writing-mode="lr-tb" unicode-bidi="normal" text-decoration="none" transform="matrix(1 0 0 1 1291.07 799)">SR</text></g><g clip-path="url(#clip133)"><text fill="#00B050" fill-opacity="1" font-family="Arial,Arial_MSFontService,sans-serif" font-style="normal" font-variant="normal" font-weight="400" font-stretch="normal" font-size="55" text-anchor="start" direction="ltr" writing-mode="lr-tb" unicode-bidi="normal" text-decoration="none" transform="matrix(1 0 0 1 1385.89 799)">LR</text></g><g clip-path="url(#clip134)"><text fill="#FF0000" fill-opacity="1" font-family="Arial,Arial_MSFontService,sans-serif" font-style="normal" font-variant="normal" font-weight="400" font-stretch="normal" font-size="55" text-anchor="start" direction="ltr" writing-mode="lr-tb" unicode-bidi="normal" text-decoration="none" transform="matrix(1 0 0 1 1474.4 799)">SR</text></g><g clip-path="url(#clip135)"><text fill="#FF0000" fill-opacity="1" font-family="Arial,Arial_MSFontService,sans-serif" font-style="normal" font-variant="normal" font-weight="400" font-stretch="normal" font-size="55" text-anchor="start" direction="ltr" writing-mode="lr-tb" unicode-bidi="normal" text-decoration="none" transform="matrix(1 0 0 1 1657.73 799)">SR</text></g><g clip-path="url(#clip136)"><text fill="#FF0000" fill-opacity="1" font-family="Arial,Arial_MSFontService,sans-serif" font-style="normal" font-variant="normal" font-weight="400" font-stretch="normal" font-size="55" text-anchor="start" direction="ltr" writing-mode="lr-tb" unicode-bidi="normal" text-decoration="none" transform="matrix(1 0 0 1 1749.4 799)">SR</text></g><g clip-path="url(#clip137)"><text fill="#00B050" fill-opacity="1" font-family="Arial,Arial_MSFontService,sans-serif" font-style="normal" font-variant="normal" font-weight="400" font-stretch="normal" font-size="55" text-anchor="start" direction="ltr" writing-mode="lr-tb" unicode-bidi="normal" text-decoration="none" transform="matrix(1 0 0 1 1844.22 799)">LR</text></g><g clip-path="url(#clip138)"><text fill="#00B050" fill-opacity="1" font-family="Arial,Arial_MSFontService,sans-serif" font-style="normal" font-variant="normal" font-weight="400" font-stretch="normal" font-size="55" text-anchor="start" direction="ltr" writing-mode="lr-tb" unicode-bidi="normal" text-decoration="none" transform="matrix(1 0 0 1 2119.22 799)">LR</text></g><g clip-path="url(#clip139)"><text fill="#00B050" fill-opacity="1" font-family="Arial,Arial_MSFontService,sans-serif" font-style="normal" font-variant="normal" font-weight="400" font-stretch="normal" font-size="55" text-anchor="start" direction="ltr" writing-mode="lr-tb" unicode-bidi="normal" text-decoration="none" transform="matrix(1 0 0 1 2210.89 799)">LR</text></g><text fill="#000000" fill-opacity="1" font-family="Arial,Arial_MSFontService,sans-serif" font-style="italic" font-variant="normal" font-weight="400" font-stretch="normal" font-size="55" text-anchor="start" direction="ltr" writing-mode="lr-tb" unicode-bidi="normal" text-decoration="none" transform="matrix(1 0 0 1 261.15 237)">Learn contexts<tspan fill="#000000" fill-opacity="1" font-family="Arial,Arial_MSFontService,sans-serif" font-style="italic" font-variant="normal" font-weight="400" font-stretch="normal" font-size="55" text-anchor="start" direction="ltr" writing-mode="lr-tb" unicode-bidi="normal" text-decoration="none" x="41.7083" y="66">for A,B,C,D</tspan><tspan fill="#000000" fill-opacity="1" font-family="Arial,Arial_MSFontService,sans-serif" font-style="italic" font-variant="normal" font-weight="400" font-stretch="normal" font-size="55" text-anchor="start" direction="ltr" writing-mode="lr-tb" unicode-bidi="normal" text-decoration="none" x="697.422" y="0">Link new contextual cues to contexts</tspan><tspan fill="#000000" fill-opacity="1" font-family="Arial,Arial_MSFontService,sans-serif" font-style="italic" font-variant="normal" font-weight="400" font-stretch="normal" font-size="55" text-anchor="start" direction="ltr" writing-mode="lr-tb" unicode-bidi="normal" text-decoration="none" x="754.576" y="66">for A,B,C (D is never presented)</tspan><tspan fill="#000000" fill-opacity="1" font-family="Arial,Arial_MSFontService,sans-serif" font-style="italic" font-variant="normal" font-weight="700" font-stretch="normal" font-size="55" text-anchor="start" direction="ltr" writing-mode="lr-tb" unicode-bidi="normal" text-decoration="none" x="1754.17" y="0">Novel situation</tspan></text></g></svg>